<svg width="36" height="36" viewBox="0 0 36 36" fill="none" xmlns="http://www.w3.org/2000/svg">
<path d="M28.5 0H7.5C3.36 0 0 3.36 0 7.5V28.5C0 32.64 3.36 36 7.5 36H28.5C32.64 36 36 32.64 36 28.5V7.5C36 3.36 32.64 0 28.5 0ZM33 28.5C33 30.975 30.975 33 28.5 33H7.5C5.025 33 3 30.975 3 28.5V7.5C3 5.025 5.025 3 7.5 3H28.5C30.975 3 33 5.025 33 7.5V28.5Z" fill="#FFEFE2"/>
<path d="M7.875 18C7.875 12.4171 12.4171 7.875 18 7.875C23.5829 7.875 28.125 12.4171 28.125 18C28.125 23.5829 23.5829 28.125 18 28.125C12.4171 28.125 7.875 23.5829 7.875 18ZM10.125 18C10.125 22.3471 13.6529 25.875 18 25.875C22.3471 25.875 25.875 22.3471 25.875 18C25.875 13.6529 22.3471 10.125 18 10.125C13.6529 10.125 10.125 13.6529 10.125 18Z" fill="#FFEFE2" stroke="#FFEFE2" stroke-width="0.75"/>
</svg>
