<svg width="38" height="38" viewBox="0 0 38 38" fill="none" xmlns="http://www.w3.org/2000/svg">
<path d="M17.2502 22.6709H13.0979V19.9867H17.2502H17.3502V19.8867V16.0566C17.3502 13.7125 17.9118 12.1884 18.8229 11.2393C19.7332 10.2909 21.085 9.80389 22.9918 9.80389C24.3926 9.80389 25.0089 9.88146 25.538 9.94805C25.5579 9.95055 25.5776 9.95303 25.5973 9.95549V12.128H23.695C22.5199 12.128 21.5562 12.7848 21.0561 13.6589C20.56 14.5261 20.4085 15.5558 20.4085 16.5927V19.8851V19.9851H20.5085H25.4016L24.9867 22.6693H20.5085H20.4085V22.7693V37V37.1145L20.522 37.0991L21.4505 36.9726C30.2832 35.7728 37.1 28.1979 37.1 19.0288C37.1 9.02639 28.9868 0.9 19 0.9C9.01317 0.9 0.9 9.02639 0.9 19.0288C0.9 28.1092 7.58678 35.6237 16.2957 36.934L17.2352 37.0765L17.3502 37.0939V36.9776V22.7709V22.6709H17.2502ZM27.4263 18.1461H22.2449V16.5927C22.2449 15.7507 22.3993 15.0089 22.6488 14.5729C22.7765 14.3495 22.8949 14.2025 23.0471 14.1086C23.1985 14.0151 23.3956 13.967 23.695 13.967H27.3336H27.4336V13.867V8.38343V8.29605L27.347 8.28433L26.6375 8.1883L26.6375 8.18829L26.6165 8.18545C26.1125 8.11708 24.9907 7.96491 22.9918 7.96491C20.7631 7.96491 18.8346 8.57318 17.4992 9.96437C16.1646 11.3548 15.5138 13.4169 15.5138 16.0566V18.1477H11.3615H11.2615V18.2477V24.4099V24.5099H11.3615H15.5138V34.861C8.21864 33.2556 2.73636 26.8241 2.73636 19.0288C2.73636 10.0223 10.0083 2.73898 19 2.73898C27.9917 2.73898 35.2636 10.0223 35.2636 19.0288C35.2636 26.9107 29.6612 33.4012 22.2449 34.9141V24.5083H26.4755H26.5613L26.5743 24.4236L27.5251 18.2614L27.5429 18.1461H27.4263Z" fill="#FFEFE2" stroke="#FFEFE2" stroke-width="0.2"/>
</svg>
