<svg width="56" height="40" viewBox="0 0 56 40" fill="none" xmlns="http://www.w3.org/2000/svg">
<path d="M35.2023 18.5755C35.4644 18.7098 35.6844 18.9138 35.838 19.165C35.9915 19.4163 36.0728 19.705 36.0728 19.9995C36.0728 20.294 35.9915 20.5828 35.838 20.834C35.6844 21.0853 35.4644 21.2892 35.2023 21.4235L30.2023 23.9995L24.7303 26.8075C24.4871 26.9318 24.2161 26.9918 23.9431 26.9816C23.6701 26.9715 23.4042 26.8917 23.1709 26.7497C22.9375 26.6078 22.7443 26.4084 22.6098 26.1707C22.4753 25.9329 22.4038 25.6647 22.4023 25.3915V14.6075C22.4025 14.3337 22.4729 14.0644 22.6069 13.8256C22.7408 13.5868 22.9338 13.3863 23.1675 13.2434C23.4011 13.1005 23.6674 13.02 23.9411 13.0095C24.2147 12.999 24.4865 13.0589 24.7303 13.1835L30.2023 15.9995L35.2023 18.5755Z" fill="#FFEFE2"/>
<path d="M45.2 2H10.8C5.93989 2 2 5.93989 2 10.8V29.2C2 34.0601 5.93989 38 10.8 38H45.2C50.0601 38 54 34.0601 54 29.2V10.8C54 5.93989 50.0601 2 45.2 2Z" stroke="#FFEFE2" stroke-width="2.5" stroke-linecap="round" stroke-linejoin="round"/>
</svg>
