<svg width="104" height="76" viewBox="0 0 104 76" fill="none" xmlns="http://www.w3.org/2000/svg">
<path opacity="0.8" d="M81.9242 19.4622C81.9238 22.4625 80.8676 25.3669 78.9408 27.6668C77.0139 29.9666 74.3393 31.5151 71.3854 32.0409C68.4316 32.5668 65.3868 32.0365 62.7847 30.543C60.1825 29.0495 58.1888 26.6879 57.153 23.8721C56.1171 21.0563 56.105 17.9658 57.1189 15.142C58.1328 12.3182 60.108 9.9412 62.6985 8.42744C65.2889 6.91368 68.3294 6.3597 71.2873 6.86253C74.2452 7.36536 76.9318 8.89293 78.8765 11.1777C80.8441 13.4896 81.9245 16.4263 81.9242 19.4622Z" fill="#FDF0D9"/>
<path d="M83.5649 18.0527C83.5644 21.053 82.5082 23.9575 80.5814 26.2573C78.6546 28.5572 75.9799 30.1056 73.0261 30.6315C70.0722 31.1574 67.0275 30.6271 64.4253 29.1336C61.8231 27.64 59.8295 25.2785 58.7936 22.4627C57.7577 19.6469 57.7457 16.5564 58.7596 13.7326C59.7735 10.9088 61.7487 8.53178 64.3391 7.01802C66.9295 5.50425 69.97 4.95027 72.9279 5.4531C75.8858 5.95593 78.5724 7.48351 80.5171 9.76824C82.4847 12.0801 83.5651 15.0169 83.5649 18.0527Z" stroke="#4D2C19" stroke-width="1.75309" stroke-miterlimit="10"/>
<path opacity="0.7" d="M62.1505 37.938C64.7174 41.7585 67.2843 45.5862 69.8512 49.4211L78.0535 37.6013H89.773C89.773 37.6013 99.9523 40.3413 100.053 54.8617V63.3612H39.1914L39.3418 50.467C39.3418 50.467 40.0761 39.0054 50.4202 37.9309L62.1505 37.938Z" fill="#FFF2D9"/>
<path opacity="0.5" d="M86.5395 60.8824C89.8707 60.8824 92.5712 58.182 92.5712 54.8508C92.5712 51.5196 89.8707 48.8191 86.5395 48.8191C83.2083 48.8191 80.5078 51.5196 80.5078 54.8508C80.5078 58.182 83.2083 60.8824 86.5395 60.8824Z" fill="#FFE5B3"/>
<path d="M102.163 63.8199V51.6169C102.08 49.1908 101.634 46.7908 100.841 44.4964C98.1584 36.9998 92.5601 35.542 91.7077 35.3414H79.0784L72.4844 46.4699V66.9718" stroke="#4D2C19" stroke-width="1.75309" stroke-miterlimit="10" stroke-linecap="round"/>
<path d="M69.3868 46.4699L62.5277 35.3414H49.4937C48.7988 35.413 42.7564 36.1867 39.8874 43.4791C39.0309 45.758 38.567 48.1656 38.5156 50.5996V63.8198" stroke="#4D2C19" stroke-width="1.75309" stroke-miterlimit="10" stroke-linecap="round"/>
<path d="M64.957 40.6496L66.5899 30.9805H74.3548L76.5257 40.6496L71.8365 48.1892H69.528L64.957 40.6496Z" fill="#FFF6E4" stroke="#4D2C19" stroke-width="1.75309"/>
<path d="M16.1369 18.6709C16.1369 9.35761 23.6868 1.8077 33.0001 1.8077C42.3133 1.8077 49.8632 9.35761 49.8632 18.6709V38.0385H16.1369V18.6709Z" fill="#FFF6E4" stroke="#4D2C19" stroke-width="1.83623"/>
<path opacity="0.8" d="M43.9907 23.7288C43.9902 26.6516 42.9614 29.4811 41.0843 31.7215C39.2072 33.9619 36.6017 35.4704 33.7241 35.9827C30.8465 36.495 27.8804 35.9784 25.3455 34.5234C22.8105 33.0685 20.8684 30.7679 19.8592 28.0249C18.8501 25.2818 18.8384 22.2711 19.8261 19.5202C20.8138 16.7694 22.738 14.4538 25.2615 12.9791C27.785 11.5044 30.747 10.9648 33.6285 11.4546C36.51 11.9444 39.1272 13.4326 41.0217 15.6583C42.9384 17.9105 43.9909 20.7714 43.9907 23.7288Z" fill="#FDF0D9"/>
<path d="M24.7215 46.2353C27.2221 49.9571 29.7228 53.686 32.2234 57.4218L40.2137 45.9073H51.6305C51.6305 45.9073 61.547 48.5765 61.6447 62.7219V71.0019H2.35547L2.50202 58.4406C2.50202 58.4406 3.21731 47.2751 13.2942 46.2283L24.7215 46.2353Z" fill="#FFF2D9"/>
<path opacity="0.5" d="M48.4811 68.5873C51.7263 68.5873 54.357 65.9566 54.357 62.7115C54.357 59.4663 51.7263 56.8356 48.4811 56.8356C45.2359 56.8356 42.6052 59.4663 42.6052 62.7115C42.6052 65.9566 45.2359 68.5873 48.4811 68.5873Z" fill="#FFE5B3"/>
<path d="M14.0358 69.6064H9.72656V57.1045C9.72671 56.5039 9.88314 55.9137 10.1805 55.3918C10.4778 54.87 10.9058 54.4345 11.4223 54.1282L18.2961 50.0632V43.7058" stroke="#4D2C19" stroke-width="1.83107" stroke-miterlimit="10" stroke-linecap="round"/>
<path d="M22.358 69.6062H26.6672V56.8879C26.6675 56.3532 26.5282 55.8277 26.2633 55.3632C25.9983 54.8988 25.6168 54.5115 25.1564 54.2396L18.0977 50.0525V43.6951" stroke="#4D2C19" stroke-width="1.83107" stroke-miterlimit="10" stroke-linecap="round"/>
<path d="M50.4453 43.3637V57.3066" stroke="#4D2C19" stroke-width="1.83107" stroke-miterlimit="10"/>
<path d="M49.8645 69.6063C53.4873 69.6063 56.4242 66.6694 56.4242 63.0465C56.4242 59.4237 53.4873 56.4868 49.8645 56.4868C46.2416 56.4868 43.3047 59.4237 43.3047 63.0465C43.3047 66.6694 46.2416 69.6063 49.8645 69.6063Z" stroke="#4D2C19" stroke-width="1.83107" stroke-miterlimit="10"/>
<path d="M63.7012 71.4487V59.5609C63.6201 57.1975 63.1861 54.8594 62.4136 52.6243C59.8002 45.3213 54.3465 43.9012 53.5161 43.7058H41.213L34.7893 54.5469V74.5192" stroke="#4D2C19" stroke-width="1.83107" stroke-miterlimit="10" stroke-linecap="round"/>
<path d="M31.773 54.5468L25.0911 43.7057H12.3937C11.7168 43.7755 5.83048 44.5292 3.03559 51.6333C2.20115 53.8533 1.74929 56.1988 1.69922 58.5699V71.4486" stroke="#4D2C19" stroke-width="1.83107" stroke-miterlimit="10" stroke-linecap="round"/>
<path d="M26.5469 45.9878L28.4955 34.449H37.7618L40.3524 45.9878L34.7565 54.9851H32.0016L26.5469 45.9878Z" fill="#FFF6E4" stroke="#4D2C19" stroke-width="1.83323"/>
<path d="M44.5 22.6121C44.4996 25.3122 43.5491 27.9261 41.8151 29.9958C40.081 32.0656 37.674 33.4591 35.0156 33.9324C32.3573 34.4056 29.6172 33.9284 27.2754 32.5843C24.9336 31.2402 23.1394 29.1149 22.2072 26.5809C21.2749 24.0468 21.2641 21.2655 22.1765 18.7242C23.089 16.1829 24.8666 14.0437 27.1978 12.6814C29.5291 11.3191 32.2654 10.8206 34.9273 11.2731C35.889 14.9279 37.5317 17.0679 38.3183 17.762C42.2514 21.2324 44.5004 19.912 44.5 22.6121Z" stroke="#4D2C19" stroke-width="2.08897" stroke-miterlimit="10"/>
<path d="M87.7227 35.9514V49.8943" stroke="#4D2C19" stroke-width="1.83107" stroke-miterlimit="10"/>
<path d="M87.1457 62.1939C90.7686 62.1939 93.7055 59.257 93.7055 55.6342C93.7055 52.0113 90.7686 49.0744 87.1457 49.0744C83.5229 49.0744 80.5859 52.0113 80.5859 55.6342C80.5859 59.257 83.5229 62.1939 87.1457 62.1939Z" stroke="#4D2C19" stroke-width="1.83107" stroke-miterlimit="10"/>
</svg>
