<svg width="78" height="88" viewBox="0 0 78 88" fill="none" xmlns="http://www.w3.org/2000/svg">
<path d="M22.5474 22.2857C22.5474 11.6607 31.1607 3.04743 41.7857 3.04743C52.4107 3.04743 61.024 11.6607 61.024 22.2857V44.3811H22.5474V22.2857Z" fill="#FFF6E4" stroke="#4D2C19" stroke-width="2.09486"/>
<path opacity="0.8" d="M54.3176 28.0559C54.3171 31.3904 53.1433 34.6184 51.0019 37.1743C48.8604 39.7303 45.8879 41.4512 42.605 42.0357C39.3221 42.6201 35.9383 42.0308 33.0463 40.3709C30.1543 38.711 27.9386 36.0865 26.7874 32.957C25.6361 29.8276 25.6227 26.3929 26.7495 23.2546C27.8764 20.1163 30.0716 17.4745 32.9505 15.7922C35.8295 14.1098 39.2086 13.4941 42.4959 14.0529C45.7833 14.6118 48.7691 16.3095 50.9304 18.8487C53.1172 21.4181 54.3179 24.682 54.3176 28.0559Z" fill="#FDF0D9"/>
<path d="M56.134 26.4895C56.1335 29.824 54.9597 33.0519 52.8183 35.6079C50.6768 38.1639 47.7043 39.8848 44.4214 40.4693C41.1385 41.0537 37.7547 40.4644 34.8627 38.8045C31.9707 37.1446 29.755 34.5201 28.6038 31.3906C27.4525 28.2612 27.4391 24.8265 28.566 21.6882C29.6928 18.5499 31.888 15.9081 34.7669 14.2258C37.6459 12.5434 41.025 11.9277 44.3124 12.4865C45.5 16.9999 47.5286 19.6428 48.5 20.4999C53.3571 24.7857 56.1345 23.155 56.134 26.4895Z" stroke="#4D2C19" stroke-width="2.08897" stroke-miterlimit="10"/>
<path opacity="0.7" d="M32.3365 53.7324C35.1893 57.9784 38.0422 62.2325 40.895 66.4944L50.0107 53.3582H63.0355C63.0355 53.3582 74.3486 56.4034 74.4601 72.541V81.9872H6.82031L6.98751 67.6568C6.98751 67.6568 7.80354 54.9187 19.2998 53.7245L32.3365 53.7324Z" fill="#FFF2D9"/>
<path opacity="0.5" d="M43.8714 79.2325C47.5737 79.2325 50.5749 76.2313 50.5749 72.5291C50.5749 68.8269 47.5737 65.8256 43.8714 65.8256C40.1692 65.8256 37.168 68.8269 37.168 72.5291C37.168 76.2313 40.1692 79.2325 43.8714 79.2325Z" fill="#FFE5B3"/>
<path d="M20.1427 80.3952H15.2266V66.1324C15.2267 65.4472 15.4052 64.7739 15.7444 64.1786C16.0836 63.5832 16.5718 63.0864 17.1612 62.7369L25.0031 58.0994V50.8466" stroke="#4D2C19" stroke-width="2.08897" stroke-miterlimit="10" stroke-linecap="round"/>
<path d="M29.6378 80.3948H34.5539V65.8852C34.5542 65.2752 34.3953 64.6756 34.0931 64.1458C33.7908 63.6159 33.3555 63.1741 32.8303 62.8639L24.7773 58.0871V50.8343" stroke="#4D2C19" stroke-width="2.08897" stroke-miterlimit="10" stroke-linecap="round"/>
<path d="M46.1094 50.4562V66.363" stroke="#4D2C19" stroke-width="2.08897" stroke-miterlimit="10"/>
<path d="M61.0228 80.3949C65.1559 80.3949 68.5064 77.0443 68.5064 72.9112C68.5064 68.7781 65.1559 65.4276 61.0228 65.4276C56.8896 65.4276 53.5391 68.7781 53.5391 72.9112C53.5391 77.0443 56.8896 80.3949 61.0228 80.3949Z" stroke="#4D2C19" stroke-width="2.08897" stroke-miterlimit="10"/>
<path d="M76.8043 82.497V68.9348C76.7117 66.2385 76.2166 63.5712 75.3354 61.0212C72.3539 52.6897 66.132 51.0695 65.1846 50.8466H51.1488L43.8203 63.2146V86" stroke="#4D2C19" stroke-width="2.08897" stroke-miterlimit="10" stroke-linecap="round"/>
<path d="M40.3798 63.2146L32.7568 50.8466H18.2711C17.4989 50.9262 10.7834 51.7861 7.59491 59.8907C6.64294 62.4234 6.12743 65.0992 6.07031 67.8043V82.4969" stroke="#4D2C19" stroke-width="2.08897" stroke-miterlimit="10" stroke-linecap="round"/>
<path d="M34.4219 53.45L36.6449 40.286H47.2163L50.1719 53.45L43.7878 63.7146H40.6449L34.4219 53.45Z" fill="#FFF6E4" stroke="#4D2C19" stroke-width="2.09143"/>
</svg>
