<svg width="51" height="68" viewBox="0 0 51 68" fill="none" xmlns="http://www.w3.org/2000/svg">
<path d="M25.4902 1.8493L30.8456 7.81581L31.2229 8.23624L31.7754 8.11792L39.615 6.43873L40.4406 14.4135L40.4987 14.9755L41.0152 15.2045L48.3446 18.454L44.325 25.391L44.0418 25.8798L44.325 26.3687L48.3446 33.3057L41.0152 36.5552L40.4987 36.7842L40.4406 37.3461L39.615 45.321L31.7754 43.6418L31.2229 43.5234L30.8456 43.9439L25.4902 49.9104L20.1348 43.9439L19.7574 43.5234L19.205 43.6418L11.3654 45.321L10.5398 37.3461L10.4817 36.7842L9.96518 36.5552L2.63579 33.3057L6.65537 26.3687L6.93862 25.8798L6.65538 25.391L2.63579 18.454L9.96518 15.2045L10.4817 14.9755L10.5398 14.4135L11.3654 6.43873L19.205 8.11792L19.7574 8.23624L20.1348 7.81581L25.4902 1.8493Z" fill="#FDF2DE" stroke="#4D2C19" stroke-width="1.95"/>
<circle cx="25.4735" cy="25.8798" r="10.2407" fill="#FDF2DE" stroke="#4D2C19" stroke-width="1.95"/>
<path d="M22.9319 65.1347L25.4809 50.3503L19.6182 43.9778L11.4613 45.7621L6.36328 65.1347L17.8339 57.7425L22.9319 65.1347Z" fill="#FDF2DE" stroke="#4D2C19" stroke-width="1.95"/>
<path d="M28.029 65.3895L25.48 50.6052L31.3428 44.2327L39.4996 46.017L44.5977 65.3895L33.1271 57.9974L28.029 65.3895Z" fill="#FDF2DE" stroke="#4D2C19" stroke-width="1.95"/>
</svg>
