<svg width="43" height="41" viewBox="0 0 43 41" fill="none" xmlns="http://www.w3.org/2000/svg">
<path d="M22.2323 26.7227C22.2328 28.9668 21.5448 31.157 20.2612 32.9977C18.9776 34.8383 17.1601 36.2409 15.0541 37.0159C12.9481 37.791 10.6551 37.9013 8.48443 37.3319C6.3138 36.7625 4.37013 35.5408 2.91578 33.8318C1.4605 31.4853 0.94401 28.6762 1.46948 25.9655C1.99494 23.2549 3.52368 20.8422 5.75034 19.2095C7.977 17.5767 10.7377 16.8441 13.4809 17.1579C16.2242 17.4717 18.748 18.8088 20.5484 20.9022C21.6489 22.6441 22.2327 24.6624 22.2323 26.7227Z" fill="white"/>
<path d="M5.86743 28.7025C6.66114 31.7466 9.46867 33.7791 12.4287 33.5737C13.7352 33.4642 14.9764 32.9554 15.9837 32.1163C16.991 31.2771 17.7157 30.1483 18.0593 28.883" stroke="#4D2C19" stroke-width="1.55628" stroke-miterlimit="10" stroke-linecap="round"/>
<path d="M41.7494 26.3523C41.7499 28.5963 41.0619 30.7866 39.7782 32.6272C38.4946 34.4679 36.6771 35.8704 34.5711 36.6455C32.4652 37.4205 30.1721 37.5308 28.0015 36.9614C25.8309 36.392 23.8872 35.1704 22.4328 33.4614C20.9587 31.1139 20.4283 28.2952 20.9485 25.5724C21.4686 22.8497 23.0006 20.425 25.2362 18.7861C27.4718 17.1473 30.2451 16.4159 32.9982 16.7392C35.7513 17.0625 38.2797 18.4165 40.0748 20.5287C41.1725 22.2725 41.7532 24.2918 41.7494 26.3523Z" fill="white"/>
<path d="M25.3855 28.3226C26.1761 31.3698 28.9867 33.4022 31.9437 33.1968C33.2457 33.0859 34.4826 32.5791 35.4881 31.7445C36.4935 30.9098 37.2194 29.7873 37.5681 28.528" stroke="#4D2C19" stroke-width="1.55628" stroke-miterlimit="10" stroke-linecap="round"/>
<path d="M33.0774 12.1062C33.0772 14.3495 32.3889 16.5388 31.1054 18.3787C29.8219 20.2186 28.005 21.6206 25.8997 22.3955C23.7944 23.1704 21.5022 23.281 19.3321 22.7123C17.162 22.1436 15.2186 20.9231 13.7639 19.2153C12.3021 16.8677 11.7813 14.0545 12.3057 11.3392C12.8302 8.62394 14.3613 6.20709 16.5922 4.57285C18.8232 2.9386 21.5893 2.20765 24.3363 2.52644C27.0834 2.84523 29.6086 4.1902 31.406 6.29193C32.5009 8.03334 33.0804 10.0492 33.0774 12.1062Z" fill="white"/>
<path d="M32.4017 11.966C32.4008 14.5398 31.4944 17.0313 29.8411 19.004C28.1879 20.9766 25.8932 22.3046 23.3592 22.7554C20.8252 23.2062 18.2133 22.7509 15.9812 21.4695C13.749 20.188 12.039 18.162 11.1506 15.7463C10.2622 13.3307 10.252 10.6795 11.122 8.25715C11.9919 5.8348 13.6865 3.79581 15.9087 2.49733C18.131 1.19885 20.7393 0.7237 23.2767 1.15512C25.8142 1.58653 28.1189 2.89701 29.7871 4.85697C31.4757 6.84073 32.4026 9.36096 32.4017 11.966Z" stroke="#4D2C19" stroke-width="1.55628" stroke-miterlimit="10"/>
<path d="M15.3442 12.3395C16.1379 15.3867 18.9486 17.4192 21.9055 17.2138C23.211 17.1005 24.4503 16.5894 25.4561 15.7495C26.4619 14.9096 27.1857 13.7813 27.5299 12.5169" stroke="#4D2C19" stroke-width="1.55628" stroke-miterlimit="10" stroke-linecap="round"/>
<path d="M22.9249 28.3194C22.9248 30.8933 22.0189 33.3851 20.3661 35.3583C18.7132 37.3314 16.4188 38.6601 13.8847 39.1114C11.3506 39.5628 8.73851 39.108 6.50604 37.8269C4.27357 36.5457 2.5631 34.5199 1.6743 32.1042C0.785493 29.6886 0.775043 27.0373 1.64478 24.6147C2.51451 22.1921 4.20897 20.1529 6.43127 18.8542C8.65357 17.5555 11.262 17.0801 13.7996 17.5115C16.3371 17.9428 18.642 19.2533 20.3103 21.2134C21.9979 23.1965 22.9247 25.7154 22.9249 28.3194Z" stroke="#4D2C19" stroke-width="1.55628" stroke-miterlimit="10"/>
<path d="M42.129 27.9486C42.1281 30.5225 41.2217 33.0139 39.5684 34.9866C37.9152 36.9592 35.6205 38.2872 33.0865 38.738C30.5524 39.1888 27.9406 38.7335 25.7085 37.4521C23.4763 36.1706 21.7663 34.1446 20.8779 31.7289C19.9894 29.3133 19.9793 26.6621 20.8493 24.2398C21.7192 21.8174 23.4138 19.7784 25.636 18.4799C27.8583 17.1815 30.4666 16.7063 33.004 17.1377C35.5415 17.5691 37.8462 18.8796 39.5144 20.8396C41.2027 22.8235 42.1296 25.3436 42.129 27.9486Z" stroke="#4D2C19" stroke-width="1.55628" stroke-miterlimit="10"/>
</svg>
