<svg width="35" height="40" viewBox="0 0 35 40" fill="none" xmlns="http://www.w3.org/2000/svg">
<path d="M28.0058 10.6801C28.0031 12.9208 27.3139 15.1069 26.031 16.944C24.7482 18.7811 22.9332 20.1811 20.8306 20.9554C18.7279 21.7297 16.4385 21.8412 14.2705 21.2748C12.1026 20.7085 10.1602 19.4915 8.70494 17.7877C7.23387 15.4406 6.70573 12.6236 7.22667 9.90307C7.74761 7.1825 9.27901 4.75994 11.5131 3.12231C13.7471 1.48468 16.5183 0.753345 19.2695 1.07533C22.0207 1.39731 24.5481 2.74874 26.3437 4.85797C27.4369 6.60256 28.0132 8.6213 28.0058 10.6801Z" fill="white"/>
<path d="M28.9478 11.9657C28.9475 14.5391 28.0416 17.0303 26.3889 19.0029C24.7363 20.9754 22.4422 22.3036 19.9086 22.7546C17.3751 23.2057 14.7636 22.7509 12.5317 21.4698C10.2998 20.1888 8.5898 18.1633 7.70131 15.7482C6.81283 13.333 6.8025 10.6822 7.67213 8.26024C8.54176 5.83824 10.2359 3.79944 12.4577 2.50107C14.6796 1.2027 17.2875 0.727543 19.8245 1.15883C22.3615 1.59011 24.6658 2.90033 26.3338 4.85997C28.0214 6.8429 28.9481 9.36182 28.9478 11.9657Z" stroke="#4D2C19" stroke-width="0.936934" stroke-miterlimit="10"/>
<path opacity="0.5" d="M24.9208 12.0088C24.2293 15.8371 20.8451 18.5673 17.1218 18.4324C13.6963 18.3106 10.6981 15.794 9.93359 12.3142L24.9208 12.0088Z" fill="white"/>
<path d="M25.4364 13.0352C24.745 16.8653 21.3608 19.5937 17.6374 19.4588C14.2119 19.337 11.2138 16.8222 10.4492 13.3425L25.4364 13.0352Z" stroke="#4D2C19" stroke-width="0.936934" stroke-miterlimit="10" stroke-linecap="round"/>
<path d="M13.3709 24.0921C14.7138 26.0909 16.0567 28.0935 17.3997 30.0998L21.6908 23.916H27.8221C27.8221 23.916 33.1477 25.3495 33.2001 32.9462V37.3929H1.35938L1.43808 30.647C1.43808 30.647 1.82222 24.6506 7.23395 24.0884L13.3709 24.0921Z" fill="white"/>
<path opacity="0.5" d="M26.1282 36.0963C27.871 36.0963 29.2838 34.6835 29.2838 32.9408C29.2838 31.198 27.871 29.7852 26.1282 29.7852C24.3855 29.7852 22.9727 31.198 22.9727 32.9408C22.9727 34.6835 24.3855 36.0963 26.1282 36.0963Z" fill="white"/>
<path d="M7.62673 36.6431H5.3125V29.9291C5.31258 29.6065 5.39659 29.2895 5.55626 29.0093C5.71593 28.7291 5.94578 28.4952 6.2232 28.3307L9.91472 26.1476V22.7334" stroke="#4D2C19" stroke-width="0.936934" stroke-miterlimit="10" stroke-linecap="round"/>
<path d="M12.0966 36.6429H14.4108V29.8126C14.4109 29.5255 14.3362 29.2432 14.1939 28.9938C14.0516 28.7444 13.8467 28.5364 13.5994 28.3904L9.80859 26.1417V22.7275" stroke="#4D2C19" stroke-width="0.936934" stroke-miterlimit="10" stroke-linecap="round"/>
<path d="M27.1797 22.5498V30.0378" stroke="#4D2C19" stroke-width="0.936934" stroke-miterlimit="10"/>
<path d="M26.8705 36.6434C28.8162 36.6434 30.3934 35.0662 30.3934 33.1205C30.3934 31.1749 28.8162 29.5977 26.8705 29.5977C24.9249 29.5977 23.3477 31.1749 23.3477 33.1205C23.3477 35.0662 24.9249 36.6434 26.8705 36.6434Z" stroke="#4D2C19" stroke-width="0.936934" stroke-miterlimit="10"/>
<path d="M34.3042 37.6325V31.2483C34.2607 29.979 34.0276 28.7234 33.6128 27.523C32.2092 23.601 29.2804 22.8383 28.8344 22.7334H22.2271L18.7773 28.5555V39.2815" stroke="#4D2C19" stroke-width="0.936934" stroke-miterlimit="10" stroke-linecap="round"/>
<path d="M17.1548 28.5556L13.5663 22.7335H6.74731C6.38378 22.7709 3.22256 23.1757 1.7216 26.9909C1.27347 28.1831 1.0308 29.4428 1.00391 30.7162V37.6326" stroke="#4D2C19" stroke-width="0.936934" stroke-miterlimit="10" stroke-linecap="round"/>
</svg>
