<svg width="36" height="39" viewBox="0 0 36 39" fill="none" xmlns="http://www.w3.org/2000/svg">
<path opacity="0.5" d="M34.4968 27.5776V36.9711C34.4968 37.5092 34.283 38.0253 33.9025 38.4058C33.522 38.7863 33.0059 39.0001 32.4678 39.0001H2.46181C2.1951 39.0005 1.93092 38.9483 1.68439 38.8465C1.43786 38.7448 1.21382 38.5954 1.02508 38.4069C0.836334 38.2185 0.686593 37.9946 0.58443 37.7483C0.482268 37.5019 0.429687 37.2378 0.429688 36.9711V27.5776C0.429688 27.0386 0.643787 26.5218 1.02488 26.1407C1.40598 25.7596 1.92286 25.5455 2.46181 25.5455H10.0987C10.1929 25.5998 10.2713 25.6778 10.3262 25.7717C10.3811 25.8656 10.4106 25.9721 10.4118 26.0809V32.7472C10.4118 32.9083 10.4758 33.0628 10.5898 33.1767C10.7037 33.2906 10.8582 33.3546 11.0193 33.3546H23.1275C23.2089 33.3571 23.2899 33.3433 23.3658 33.3139C23.4416 33.2845 23.5108 33.2401 23.5692 33.1835C23.6277 33.1268 23.6741 33.059 23.7058 32.9841C23.7375 32.9091 23.7538 32.8285 23.7537 32.7472V26.0966C23.7549 25.9878 23.7845 25.8812 23.8394 25.7873C23.8943 25.6935 23.9727 25.6155 24.0669 25.5611H32.4803C33.0138 25.5652 33.5244 25.779 33.9016 26.1563C34.2789 26.5335 34.4927 27.0441 34.4968 27.5776Z" fill="white"/>
<path d="M34.7648 27.5776V36.9711C34.7639 37.5095 34.5495 38.0256 34.1685 38.406C33.7875 38.7864 33.271 39.0001 32.7326 39.0001H2.72353C2.18512 39.0001 1.6687 38.7864 1.28769 38.406C0.906685 38.0256 0.692236 37.5095 0.691406 36.9711V27.5776C0.692234 27.0389 0.906583 26.5225 1.2875 26.1416C1.66842 25.7607 2.18483 25.5463 2.72353 25.5455H10.3604C10.4546 25.5998 10.533 25.6778 10.588 25.7717C10.6429 25.8656 10.6723 25.9721 10.6736 26.0809V32.7472C10.6736 32.9083 10.7376 33.0628 10.8515 33.1767C10.9654 33.2906 11.1199 33.3546 11.281 33.3546H23.3892C23.5503 33.3546 23.7048 33.2906 23.8188 33.1767C23.9327 33.0628 23.9967 32.9083 23.9967 32.7472V26.0966C23.9979 25.9878 24.0274 25.8812 24.0823 25.7873C24.1372 25.6935 24.2156 25.6155 24.3098 25.5611H32.7232C33.2609 25.5595 33.7773 25.7706 34.1598 26.1484C34.5423 26.5262 34.7598 27.04 34.7648 27.5776Z" fill="white"/>
<path d="M35.027 25.7309V35.1244C35.0274 35.3913 34.9752 35.6558 34.8732 35.9025C34.7712 36.1493 34.6215 36.3734 34.4327 36.5622C34.244 36.751 34.0198 36.9007 33.773 37.0026C33.5263 37.1046 33.2619 37.1569 32.9949 37.1565H2.98578C2.71906 37.1565 2.45498 37.1039 2.20861 37.0018C1.96223 36.8996 1.73841 36.7498 1.54996 36.5611C1.36151 36.3724 1.21211 36.1483 1.11033 35.9018C1.00855 35.6553 0.956378 35.3911 0.95679 35.1244V25.7309C0.956378 25.4641 1.00855 25.2 1.11033 24.9535C1.21211 24.7069 1.36151 24.4829 1.54996 24.2941C1.73841 24.1054 1.96223 23.9557 2.20861 23.8535C2.45498 23.7513 2.71906 23.6987 2.98578 23.6987H10.6258C10.7208 23.7514 10.8 23.8285 10.8551 23.9221C10.9102 24.0158 10.9391 24.1224 10.939 24.2311V30.8691C10.9364 30.9502 10.9502 31.031 10.9794 31.1066C11.0086 31.1823 11.0527 31.2513 11.109 31.3097C11.1653 31.3681 11.2328 31.4146 11.3074 31.4465C11.3819 31.4783 11.4622 31.495 11.5433 31.4953H23.6609C23.822 31.4953 23.9765 31.4313 24.0904 31.3174C24.2043 31.2035 24.2683 31.049 24.2683 30.8879V24.2311C24.2682 24.1224 24.2971 24.0158 24.3522 23.9221C24.4073 23.8285 24.4864 23.7514 24.5815 23.6987H32.9918C33.259 23.6979 33.5238 23.7499 33.7709 23.8517C34.018 23.9535 34.2425 24.1031 34.4316 24.2919C34.6207 24.4807 34.7707 24.7051 34.8729 24.952C34.975 25.1989 35.0274 25.4636 35.027 25.7309Z" stroke="#4D2C19" stroke-width="1.56558" stroke-miterlimit="10"/>
<path d="M30.6581 9.1917V21.303C30.6586 21.3825 30.6432 21.4613 30.613 21.5348C30.5828 21.6083 30.5383 21.6751 30.4821 21.7313C30.4259 21.7875 30.3591 21.832 30.2856 21.8622C30.2121 21.8924 30.1333 21.9078 30.0538 21.9074H23.4001C23.3205 21.9074 23.2416 21.9231 23.1681 21.9536C23.0946 21.9842 23.0278 22.029 22.9717 22.0855C22.9155 22.1419 22.8711 22.2089 22.8409 22.2826C22.8107 22.3563 22.7954 22.4352 22.7958 22.5148V29.1654C22.7958 29.3265 22.7318 29.481 22.6179 29.5949C22.5039 29.7088 22.3494 29.7728 22.1883 29.7728H10.077C9.99722 29.7728 9.91822 29.7571 9.84452 29.7266C9.77082 29.6961 9.70388 29.6513 9.64747 29.5949C9.59106 29.5385 9.5463 29.4715 9.51577 29.3978C9.48525 29.3241 9.46954 29.2452 9.46954 29.1654V22.5148C9.46996 22.4352 9.45463 22.3563 9.42444 22.2826C9.39426 22.2089 9.3498 22.1419 9.29364 22.0855C9.23749 22.029 9.17074 21.9842 9.09722 21.9536C9.0237 21.9231 8.94485 21.9074 8.86523 21.9074H2.2115C2.13202 21.9078 2.05324 21.8924 1.97974 21.8622C1.90623 21.832 1.83946 21.7875 1.78326 21.7313C1.72706 21.6751 1.68255 21.6083 1.65233 21.5348C1.6221 21.4613 1.60677 21.3825 1.60719 21.303V9.1917C1.60677 9.11208 1.6221 9.03314 1.65229 8.95946C1.68247 8.88578 1.72691 8.8188 1.78307 8.76235C1.83922 8.7059 1.90599 8.66113 1.97951 8.63056C2.05303 8.59999 2.13188 8.58423 2.2115 8.58423H8.86523C8.94485 8.58424 9.0237 8.56851 9.09722 8.53795C9.17074 8.50738 9.23749 8.46261 9.29364 8.40616C9.3498 8.34971 9.39426 8.28269 9.42444 8.20901C9.45463 8.13533 9.46996 8.05643 9.46954 7.97681V1.32622C9.46954 1.24644 9.48525 1.16745 9.51577 1.09375C9.5463 1.02005 9.59106 0.953081 9.64747 0.896674C9.70388 0.840268 9.77082 0.795526 9.84452 0.764999C9.91822 0.734472 9.99722 0.71875 10.077 0.71875H22.1883C22.3494 0.71875 22.5039 0.782756 22.6179 0.896674C22.7318 1.01059 22.7958 1.16511 22.7958 1.32622V7.97681C22.7954 8.05643 22.8107 8.13533 22.8409 8.20901C22.8711 8.28269 22.9155 8.34971 22.9717 8.40616C23.0278 8.46261 23.0946 8.50738 23.1681 8.53795C23.2416 8.56851 23.3205 8.58424 23.4001 8.58423H30.0538C30.1335 8.58423 30.2123 8.59999 30.2858 8.63056C30.3593 8.66113 30.4261 8.7059 30.4823 8.76235C30.5384 8.8188 30.5829 8.88578 30.613 8.95946C30.6432 9.03314 30.6586 9.11208 30.6581 9.1917Z" fill="white"/>
<path d="M32.1336 10.9073V23.0186C32.1328 23.1792 32.0685 23.3329 31.9546 23.4461C31.8408 23.5594 31.6868 23.6229 31.5262 23.6229H24.8756C24.7148 23.6238 24.5607 23.688 24.447 23.8018C24.3332 23.9155 24.269 24.0696 24.2682 24.2304V30.8685C24.2682 30.9482 24.2524 31.0272 24.2219 31.1009C24.1914 31.1746 24.1466 31.2416 24.0902 31.298C24.0338 31.3544 23.9669 31.3992 23.8932 31.4297C23.8195 31.4602 23.7405 31.4759 23.6607 31.4759H11.5431C11.4633 31.4759 11.3843 31.4602 11.3106 31.4297C11.2369 31.3992 11.17 31.3544 11.1136 31.298C11.0572 31.2416 11.0124 31.1746 10.9819 31.1009C10.9514 31.0272 10.9356 30.9482 10.9356 30.8685V24.2304C10.9358 24.1218 10.9068 24.0151 10.8518 23.9215C10.7967 23.8279 10.7175 23.7507 10.6225 23.6981C10.533 23.6498 10.4331 23.624 10.3313 23.6229H3.68386C3.5233 23.6229 3.36926 23.5594 3.25543 23.4461C3.1416 23.3329 3.07724 23.1792 3.07642 23.0186V10.9073C3.07641 10.8277 3.09214 10.7488 3.1227 10.6753C3.15327 10.6018 3.19806 10.535 3.25451 10.4789C3.31096 10.4227 3.37794 10.3782 3.45162 10.3481C3.52531 10.3179 3.60424 10.3025 3.68386 10.303H10.3345C10.4142 10.303 10.4932 10.2873 10.5669 10.2567C10.6406 10.2262 10.7076 10.1815 10.764 10.1251C10.8204 10.0687 10.8651 10.0017 10.8957 9.92799C10.9262 9.8543 10.9419 9.7753 10.9419 9.69553V3.0418C10.9427 2.88124 11.0071 2.72753 11.1209 2.61429C11.2347 2.50104 11.3888 2.43747 11.5494 2.43747H23.6607C23.8213 2.43747 23.9753 2.50104 24.0891 2.61429C24.2029 2.72753 24.2673 2.88124 24.2682 3.0418V9.69553C24.2682 9.7753 24.2839 9.8543 24.3144 9.92799C24.3449 10.0017 24.3897 10.0687 24.4461 10.1251C24.5025 10.1815 24.5694 10.2262 24.6431 10.2567C24.7168 10.2873 24.7958 10.303 24.8756 10.303H31.5262C31.6058 10.3025 31.6847 10.3179 31.7584 10.3481C31.8321 10.3782 31.8991 10.4227 31.9555 10.4789C32.012 10.535 32.0568 10.6018 32.0873 10.6753C32.1179 10.7488 32.1336 10.8277 32.1336 10.9073Z" stroke="#4D2C19" stroke-width="1.56558" stroke-miterlimit="10"/>
</svg>
