<svg width="41" height="40" viewBox="0 0 41 40" fill="none" xmlns="http://www.w3.org/2000/svg">
<g clip-path="url(#clip0_8439_414)">
<rect x="1.35938" y="5.33398" width="37.3333" height="34.6667" fill="white"/>
<path d="M37.5234 3.74512L27.5147 3.74516V1.25391C27.5147 0.563281 26.9553 0.00390625 26.2647 0.00390625C25.5741 0.00390625 25.0147 0.563281 25.0147 1.25391V3.74453H15.0147V1.25391C15.0147 0.563281 14.4553 0.00390625 13.7647 0.00390625C13.0741 0.00390625 12.5147 0.563281 12.5147 1.25391V3.74453H2.52344C1.14281 3.74453 0.0234375 4.86391 0.0234375 6.24453V37.4945C0.0234375 38.8751 1.14281 39.9945 2.52344 39.9945H37.5234C38.9041 39.9945 40.0234 38.8751 40.0234 37.4945V6.24453C40.0234 4.86449 38.9041 3.74512 37.5234 3.74512ZM37.5234 37.4945H2.52344V6.24453H12.5147V7.50391C12.5147 8.19449 13.0741 8.75391 13.7647 8.75391C14.4553 8.75391 15.0147 8.19449 15.0147 7.50391V6.24516H25.0147V7.50453C25.0147 8.19516 25.5741 8.75453 26.2647 8.75453C26.9553 8.75453 27.5147 8.19516 27.5147 7.50453V6.24516H37.5234V37.4945ZM28.7734 19.9951H31.2734C31.9634 19.9951 32.5234 19.4351 32.5234 18.7451V16.2451C32.5234 15.5551 31.9634 14.9951 31.2734 14.9951H28.7734C28.0834 14.9951 27.5234 15.5551 27.5234 16.2451V18.7451C27.5234 19.4351 28.0834 19.9951 28.7734 19.9951ZM28.7734 29.9945H31.2734C31.9634 29.9945 32.5234 29.4351 32.5234 28.7445V26.2445C32.5234 25.5545 31.9634 24.9945 31.2734 24.9945H28.7734C28.0834 24.9945 27.5234 25.5545 27.5234 26.2445V28.7445C27.5234 29.4357 28.0834 29.9945 28.7734 29.9945ZM21.2734 24.9945H18.7734C18.0834 24.9945 17.5234 25.5545 17.5234 26.2445V28.7445C17.5234 29.4351 18.0834 29.9945 18.7734 29.9945H21.2734C21.9634 29.9945 22.5234 29.4351 22.5234 28.7445V26.2445C22.5234 25.5551 21.9634 24.9945 21.2734 24.9945ZM21.2734 14.9951H18.7734C18.0834 14.9951 17.5234 15.5551 17.5234 16.2451V18.7451C17.5234 19.4351 18.0834 19.9951 18.7734 19.9951H21.2734C21.9634 19.9951 22.5234 19.4351 22.5234 18.7451V16.2451C22.5234 15.5545 21.9634 14.9951 21.2734 14.9951ZM11.2734 14.9951H8.77344C8.08344 14.9951 7.52344 15.5551 7.52344 16.2451V18.7451C7.52344 19.4351 8.08344 19.9951 8.77344 19.9951H11.2734C11.9634 19.9951 12.5234 19.4351 12.5234 18.7451V16.2451C12.5234 15.5545 11.9634 14.9951 11.2734 14.9951ZM11.2734 24.9945H8.77344C8.08344 24.9945 7.52344 25.5545 7.52344 26.2445V28.7445C7.52344 29.4351 8.08344 29.9945 8.77344 29.9945H11.2734C11.9634 29.9945 12.5234 29.4351 12.5234 28.7445V26.2445C12.5234 25.5551 11.9634 24.9945 11.2734 24.9945Z" fill="#4D2C19"/>
<mask id="mask0_8439_414" style="mask-type:alpha" maskUnits="userSpaceOnUse" x="0" y="0" width="41" height="40">
<path d="M37.5273 3.74512L27.5186 3.74516V1.25391C27.5186 0.563281 26.9592 0.00390625 26.2686 0.00390625C25.578 0.00390625 25.0186 0.563281 25.0186 1.25391V3.74453H15.0186V1.25391C15.0186 0.563281 14.4592 0.00390625 13.7686 0.00390625C13.078 0.00390625 12.5186 0.563281 12.5186 1.25391V3.74453H2.52734C1.14672 3.74453 0.0273438 4.86391 0.0273438 6.24453V37.4945C0.0273438 38.8751 1.14672 39.9945 2.52734 39.9945H37.5273C38.908 39.9945 40.0273 38.8751 40.0273 37.4945V6.24453C40.0273 4.86449 38.908 3.74512 37.5273 3.74512ZM37.5273 37.4945H2.52734V6.24453H12.5186V7.50391C12.5186 8.19449 13.078 8.75391 13.7686 8.75391C14.4592 8.75391 15.0186 8.19449 15.0186 7.50391V6.24516H25.0186V7.50453C25.0186 8.19516 25.578 8.75453 26.2686 8.75453C26.9592 8.75453 27.5186 8.19516 27.5186 7.50453V6.24516H37.5273V37.4945ZM28.7773 19.9951H31.2773C31.9673 19.9951 32.5273 19.4351 32.5273 18.7451V16.2451C32.5273 15.5551 31.9673 14.9951 31.2773 14.9951H28.7773C28.0873 14.9951 27.5273 15.5551 27.5273 16.2451V18.7451C27.5273 19.4351 28.0873 19.9951 28.7773 19.9951ZM28.7773 29.9945H31.2773C31.9673 29.9945 32.5273 29.4351 32.5273 28.7445V26.2445C32.5273 25.5545 31.9673 24.9945 31.2773 24.9945H28.7773C28.0873 24.9945 27.5273 25.5545 27.5273 26.2445V28.7445C27.5273 29.4357 28.0873 29.9945 28.7773 29.9945ZM21.2773 24.9945H18.7773C18.0873 24.9945 17.5273 25.5545 17.5273 26.2445V28.7445C17.5273 29.4351 18.0873 29.9945 18.7773 29.9945H21.2773C21.9673 29.9945 22.5273 29.4351 22.5273 28.7445V26.2445C22.5273 25.5551 21.9673 24.9945 21.2773 24.9945ZM21.2773 14.9951H18.7773C18.0873 14.9951 17.5273 15.5551 17.5273 16.2451V18.7451C17.5273 19.4351 18.0873 19.9951 18.7773 19.9951H21.2773C21.9673 19.9951 22.5273 19.4351 22.5273 18.7451V16.2451C22.5273 15.5545 21.9673 14.9951 21.2773 14.9951ZM11.2773 14.9951H8.77734C8.08734 14.9951 7.52734 15.5551 7.52734 16.2451V18.7451C7.52734 19.4351 8.08734 19.9951 8.77734 19.9951H11.2773C11.9673 19.9951 12.5273 19.4351 12.5273 18.7451V16.2451C12.5273 15.5545 11.9673 14.9951 11.2773 14.9951ZM11.2773 24.9945H8.77734C8.08734 24.9945 7.52734 25.5545 7.52734 26.2445V28.7445C7.52734 29.4351 8.08734 29.9945 8.77734 29.9945H11.2773C11.9673 29.9945 12.5273 29.4351 12.5273 28.7445V26.2445C12.5273 25.5551 11.9673 24.9945 11.2773 24.9945Z" fill="white"/>
</mask>
<g mask="url(#mask0_8439_414)">
<rect x="26.6953" y="13.334" width="6.66667" height="8" fill="#C96A34"/>
</g>
</g>
<defs>
<clipPath id="clip0_8439_414">
<rect width="40" height="40" fill="white" transform="translate(0.0234375)"/>
</clipPath>
</defs>
</svg>
