<svg width="16" height="16" viewBox="0 0 16 16" fill="none" xmlns="http://www.w3.org/2000/svg">
<path d="M15.2 6.4H9.6V0.8C9.6 0.587827 9.51572 0.384344 9.36569 0.234315C9.21566 0.0842856 9.01217 0 8.8 0H7.2C6.98783 0 6.78434 0.0842856 6.63432 0.234315C6.48429 0.384344 6.4 0.587827 6.4 0.8V6.4H0.8C0.587827 6.4 0.384344 6.48429 0.234315 6.63432C0.0842856 6.78434 0 6.98783 0 7.2V8.8C0 9.01217 0.0842856 9.21566 0.234315 9.36569C0.384344 9.51572 0.587827 9.6 0.8 9.6H6.4V15.2C6.4 15.4122 6.48429 15.6157 6.63432 15.7657C6.78434 15.9157 6.98783 16 7.2 16H8.8C9.01217 16 9.21566 15.9157 9.36569 15.7657C9.51572 15.6157 9.6 15.4122 9.6 15.2V9.6H15.2C15.4122 9.6 15.6157 9.51572 15.7657 9.36569C15.9157 9.21566 16 9.01217 16 8.8V7.2C16 6.98783 15.9157 6.78434 15.7657 6.63432C15.6157 6.48429 15.4122 6.4 15.2 6.4Z" fill="#EA7D28"/>
</svg>
