<svg width="22" height="12" viewBox="0 0 22 12" fill="none" xmlns="http://www.w3.org/2000/svg">
<path d="M10.7065 11.7499L10.7065 11.7498L10.7006 11.7499C10.349 11.754 10.0109 11.6236 9.75838 11.3883L0.653741 2.48146L0.653744 2.48145L0.652682 2.48043C0.527607 2.35951 0.428495 2.21606 0.3607 2.05843C0.292911 1.90082 0.257679 1.73195 0.256851 1.5614C0.256023 1.39085 0.289613 1.22166 0.355861 1.06345C0.422116 0.905222 0.519819 0.76088 0.643698 0.638825C0.767589 0.516758 0.91523 0.419388 1.07835 0.35256C1.24147 0.285729 1.41669 0.250835 1.59395 0.250015C1.77122 0.249195 1.94678 0.282467 2.11056 0.347792C2.27409 0.413017 2.42249 0.50884 2.54746 0.629519C2.54765 0.629698 2.54783 0.629878 2.54802 0.630057L10.5286 8.44677L10.7035 8.61811L10.8785 8.44677L18.8555 0.633486C19.1092 0.410893 19.4416 0.290454 19.7849 0.298568C20.1302 0.30673 20.458 0.444285 20.7005 0.680985L20.8741 0.503137L20.7005 0.680986C20.9428 0.917507 21.0816 1.23473 21.0898 1.56654C21.098 1.89653 20.9765 2.21805 20.7488 2.46502L11.6486 11.3884C11.3961 11.6236 11.058 11.754 10.7065 11.7499Z" fill="#4D2C19" stroke="#FFEFE2" stroke-width="0.5"/>
</svg>
