<svg width="128" height="124" viewBox="0 0 128 124" fill="none" xmlns="http://www.w3.org/2000/svg">
<path opacity="0.8" d="M86.4327 29.598C86.4319 35.4333 84.3777 41.0822 80.6302 45.5552C76.8827 50.0281 71.6807 53.0398 65.9357 54.0626C60.1907 55.0853 54.269 54.054 49.208 51.1492C44.147 48.2444 40.2695 43.6515 38.2548 38.1749C36.2401 32.6985 36.2167 26.6877 38.1887 21.1957C40.1606 15.7036 44.0022 11.0805 49.0404 8.1364C54.0786 5.19226 59.9921 4.11482 65.7449 5.09278C71.4977 6.07074 76.7229 9.04174 80.5052 13.4853C84.332 17.9818 86.4333 23.6936 86.4327 29.598Z" fill="#FDF0D9"/>
<path d="M89.6124 26.8567C89.6116 32.6921 87.5574 38.341 83.8099 42.814C80.0624 47.2869 74.8604 50.2986 69.1154 51.3214C63.3704 52.3441 57.4487 51.3128 52.3877 48.408C47.3267 45.5032 43.4492 40.9102 41.4345 35.4337C39.4198 29.9572 39.3964 23.9465 41.3683 18.4544C43.3403 12.9624 47.1819 8.33932 52.2201 5.39519C57.2582 2.45105 63.1717 1.37361 68.9246 2.35157C74.6774 3.32953 79.9026 6.30053 83.6849 10.7441C87.5117 15.2405 89.6129 20.9523 89.6124 26.8567Z" stroke="#4D2C19" stroke-width="3.65569" stroke-miterlimit="10"/>
<path opacity="0.7" d="M47.9658 65.5317C52.9583 72.9623 57.9507 80.4069 62.9432 87.8653L78.8958 64.877H101.689C101.689 64.877 121.487 70.206 121.682 98.4469V114.978H3.3125L3.60509 89.8995C3.60509 89.8995 5.03316 67.6077 25.1515 65.5179L47.9658 65.5317Z" fill="#FFF2D9"/>
<path opacity="0.5" d="M95.399 110.157C101.878 110.157 107.13 104.905 107.13 98.426C107.13 91.9471 101.878 86.6949 95.399 86.6949C88.9201 86.6949 83.668 91.9471 83.668 98.426C83.668 104.905 88.9201 110.157 95.399 110.157Z" fill="#FFE5B3"/>
<path d="M26.6306 112.192H18.0273V87.2318C18.0276 86.0328 18.3399 84.8544 18.9335 83.8126C19.5271 82.7708 20.3816 81.9014 21.4129 81.2897L35.1363 73.1741V60.4817" stroke="#4D2C19" stroke-width="3.65569" stroke-miterlimit="10" stroke-linecap="round"/>
<path d="M43.2401 112.191H51.8434V86.7993C51.8439 85.7317 51.5659 84.6826 51.0369 83.7553C50.5079 82.8281 49.7462 82.0548 48.827 81.512L34.7344 73.1526V60.4602" stroke="#4D2C19" stroke-width="3.65569" stroke-miterlimit="10" stroke-linecap="round"/>
<path d="M99.3125 59.7986V87.6354" stroke="#4D2C19" stroke-width="3.65569" stroke-miterlimit="10"/>
<path d="M98.1668 112.191C105.4 112.191 111.263 106.328 111.263 99.0947C111.263 91.8618 105.4 85.9983 98.1668 85.9983C90.9338 85.9983 85.0703 91.8618 85.0703 99.0947C85.0703 106.328 90.9338 112.191 98.1668 112.191Z" stroke="#4D2C19" stroke-width="3.65569" stroke-miterlimit="10"/>
<path d="M125.784 115.87V92.136C125.623 87.4175 124.756 82.7496 123.214 78.2873C117.996 63.7071 107.108 60.8718 105.45 60.4817H80.8873L68.0625 82.1257V122" stroke="#4D2C19" stroke-width="3.65569" stroke-miterlimit="10" stroke-linecap="round"/>
<path d="M62.0417 82.1257L48.7014 60.4817H23.3514C22 60.621 10.248 62.1258 4.66804 76.3089C3.0021 80.7411 2.09996 85.4238 2 90.1577V115.87" stroke="#4D2C19" stroke-width="3.65569" stroke-miterlimit="10" stroke-linecap="round"/>
</svg>
