<svg width="815" height="322" viewBox="0 0 815 322" fill="none" xmlns="http://www.w3.org/2000/svg">
<g opacity="0.18" clip-path="url(#clip0_1_3075)">
<path d="M573.863 319.561V269.662H584.027V311.085H609.3V319.561H573.863Z" fill="white"/>
<path d="M541.442 319.565H530.382L525.987 308.137H505.866L501.711 319.565H490.93L510.536 269.254H521.283L541.442 319.565ZM522.724 299.66L515.789 280.991L508.989 299.66H522.724Z" fill="white"/>
<path d="M442.893 319.565V277.765H427.957V269.254H467.959V277.765H453.057V319.565H442.893Z" fill="white"/>
<path d="M354.098 319.565V269.254H363.987L384.59 302.852V269.254H394.035V319.565H383.837L363.543 286.756V319.565H354.098Z" fill="white"/>
<path d="M280.352 319.565V269.254H317.677V277.765H290.516V288.918H315.789V297.395H290.516V311.088H318.639V319.565H280.352Z" fill="white"/>
<path d="M202.777 269.253H221.354C225.544 269.253 228.737 269.573 230.935 270.214C233.888 271.083 236.418 272.627 238.524 274.847C240.63 277.066 242.232 279.789 243.331 283.015C244.43 286.218 244.979 290.176 244.979 294.889C244.979 299.03 244.464 302.599 243.434 305.596C242.175 309.257 240.378 312.22 238.043 314.485C236.28 316.201 233.9 317.539 230.9 318.5C228.657 319.209 225.658 319.564 221.904 319.564H202.777V269.253ZM212.941 277.764V311.087H220.53C223.369 311.087 225.418 310.927 226.677 310.607C228.325 310.195 229.687 309.497 230.763 308.513C231.862 307.53 232.755 305.917 233.442 303.674C234.128 301.41 234.472 298.332 234.472 294.443C234.472 290.553 234.128 287.568 233.442 285.485C232.755 283.404 231.793 281.779 230.557 280.612C229.321 279.445 227.753 278.656 225.853 278.244C224.433 277.924 221.652 277.764 217.508 277.764H212.941Z" fill="white"/>
<path d="M24.3626 65.0305C34.3213 57.6374 47.6453 54.975 60.3757 54.8262C72.6337 54.8262 85.3638 56.8266 95.7948 62.8545C102.053 66.5443 107.52 72.1671 108.403 79.0196C109.149 84.5203 108.312 91.0213 103.15 94.7382C97.7893 98.3063 90.7392 98.8741 84.2372 98.9147C84.1456 91.4403 83.506 83.5743 79.3491 76.8974C76.6081 72.4508 71.5525 69.126 65.8576 68.4502C58.0763 67.4635 49.5794 68.761 43.2751 73.1266C36.2551 78.3166 32.753 86.2096 30.5906 93.8732C27.134 106.578 26.7076 119.742 26.8142 132.758C27.0426 143.084 28.1086 153.545 31.885 163.385C34.4583 169.98 38.585 176.414 45.1787 180.442C53.6145 185.713 64.4871 186.713 74.4915 185.686C87.0236 184.375 98.5507 177.306 104.337 167.358C109.088 171.467 109.941 178.104 107.764 183.469C105.525 189.213 100.363 193.647 94.5763 196.688C85.5466 201.364 74.9938 203.216 64.6242 203.378C53.2795 203.635 41.6763 201.715 31.7175 196.755C21.4389 191.579 13.7795 182.983 9.10468 173.454C2.13049 159.519 0.379337 144.057 0.455474 128.96C0.562066 115.891 1.71935 102.631 6.39418 90.1563C9.88125 80.6414 15.5459 71.4641 24.3931 65.0576L24.3626 65.0305Z" fill="#E9811F"/>
<path d="M139.52 11.5238C139.413 7.75287 139.337 3.98201 139.55 0.224609C156.681 0.386797 173.812 0.170541 190.958 0.346245C190.882 56.9638 190.958 113.581 190.927 170.212C190.897 175.497 190.882 181.228 194.308 185.81C196.759 189.283 201.267 191.175 205.728 191.689C209.337 192.162 212.992 192.243 216.631 192.108C216.875 195.865 216.692 199.636 216.723 203.394C191.064 203.38 165.391 203.448 139.732 203.353L139.474 203.137C139.352 199.487 139.474 195.811 139.443 192.149C145.854 192.081 152.965 192.459 158.447 188.972C163.792 185.418 165.284 179.092 165.254 173.483C165.254 125.354 165.254 77.2241 165.254 29.1078C165.315 23.8096 163.7 17.9032 158.63 14.6189C153.102 11.1454 145.945 11.5373 139.504 11.5238H139.52Z" fill="#E9811F"/>
<path d="M292.842 55.0339C304.324 54.3177 316.216 55.3582 326.769 59.6564C335.586 63.1567 343.049 69.0497 348.376 76.1726C354.467 84.2281 358.045 93.5674 360.148 103.028C362.722 114.936 363.055 127.141 362.339 139.224C361.549 150.82 359.402 162.538 354.149 173.256C350.13 181.501 343.839 188.975 335.51 194.165C326.769 199.693 316.125 202.464 305.496 203.153C293.878 203.951 281.863 202.829 271.219 198.423C261.854 194.652 254.058 188.151 248.683 180.42C243.17 172.54 239.866 163.593 237.902 154.537C235.663 143.981 235.191 133.209 235.557 122.491C236.044 111.287 237.613 100.001 241.815 89.3638C245.379 80.4166 251.104 71.9151 259.54 65.9276C268.859 59.0751 280.904 55.7636 292.858 55.0339H292.842ZM294.152 69.1307C287.771 69.6849 281.513 71.9555 276.869 75.9428C269.986 81.7544 266.743 90.0397 264.748 98.0951C261.672 111.625 261.504 125.532 262.053 139.264C262.738 150.226 263.941 161.457 268.92 171.634C272.209 178.473 277.98 184.745 285.975 187.475C293.558 190.029 302.116 190.151 309.912 188.232C318.166 186.191 324.622 180.339 328.216 173.581C333.987 162.93 335.205 150.928 335.936 139.278C336.5 125.411 336.302 111.381 333.15 97.7436C331.018 89.2289 327.363 80.4031 319.536 74.7128C312.532 69.5767 302.969 68.3335 294.167 69.1307H294.152Z" fill="#E9811F"/>
<path d="M584.926 59.7195C594.748 55.462 605.957 54.2994 616.782 55.0295C628.554 55.7863 640.292 59.7869 648.729 67.2475C657.836 75.168 662.875 86.0211 665.419 96.9417C668.115 108.106 667.732 119.581 667.671 130.934C637.46 130.907 607.266 131.015 577.068 130.88C576.855 136.989 577.557 143.112 578.456 149.167C580.053 158.371 582.871 167.778 589.359 175.306C593.605 180.307 599.788 183.943 606.655 185.416C619.326 188.16 633.319 186.038 644.07 179.429C649.018 176.428 653.45 172.616 656.418 167.967C658.778 168.819 660.104 170.995 661.003 172.995C663.028 178.388 660.41 184.186 656.679 188.484C650.1 195.837 639.959 199.864 629.893 202.013C615.7 204.514 600.381 203.96 587.134 198.445C576.963 194.323 568.648 187.092 563.058 178.577C554.41 165.426 551.229 150.018 550.663 134.962C550.361 124.109 550.954 113.174 553.237 102.483C555.082 94.0359 558.036 85.6832 562.984 78.2358C568.159 70.4373 575.685 63.7201 584.926 59.7598V59.7195ZM592.906 74.8976C587.623 79.1415 584.455 85.0073 582.261 90.9274C579.263 99.1987 578.011 107.89 577.465 116.54C598.373 116.54 619.278 116.634 640.173 116.486C640.051 107.552 639.427 98.5368 636.731 89.8865C634.767 83.737 631.613 77.5196 625.783 73.4919C620.849 69.8967 614.178 68.8562 607.951 69.2886C602.423 69.613 596.973 71.5457 592.89 74.8976H592.906Z" fill="#E9811F"/>
<path d="M378.808 59.9883C401.497 60.0015 424.186 59.9883 446.878 59.9883C446.936 63.7184 446.817 67.4353 446.953 71.1658C441.927 71.3278 436.446 71.0576 432.091 73.7065C428.147 76.0042 426.943 80.5051 427.082 84.4518C427.174 89.7228 429.578 94.6562 431.267 99.6434C436.188 113.024 441.058 126.405 445.979 139.785C449.177 148.327 452.07 156.95 454.671 165.641C456.561 171.966 458.541 178.305 459.715 184.779C459.894 184.725 460.291 184.644 460.474 184.59C464.663 171.263 470.313 158.342 475.213 145.232C481.182 129.365 487.138 113.484 493.107 97.6294C495.162 92.5611 496.807 87.1549 496.078 81.7351C495.664 78.6399 494.022 75.4907 490.946 73.8146C486.575 71.3142 481.213 71.3549 476.234 71.1386C476.417 67.4217 476.251 63.7048 476.326 59.9883C495.803 60.0286 515.263 59.9883 534.723 60.0018C534.662 63.7591 534.832 67.5299 534.631 71.2874C530.385 71.2468 525.695 71.0441 522.025 73.2608C518.492 75.5582 516.511 79.1669 514.761 82.6269C511.105 90.1688 508.439 98.0622 505.35 105.793C497.919 125.053 490.458 144.313 483.027 163.573C477.818 176.845 472.884 190.199 467.525 203.418C459.301 203.309 451.08 203.377 442.842 203.39C427.933 163.776 413.377 124.04 398.56 84.3976C396.885 80.4377 394.935 76.2205 390.916 73.6797C387.413 71.4494 382.905 71.301 378.764 71.2332C378.703 67.4895 378.673 63.732 378.795 59.9883H378.808Z" fill="#E9811F"/>
<path d="M755.353 44.4639C761.58 44.4774 767.81 44.4774 774.037 44.4639C786.371 57.777 796.681 72.6985 803.502 88.8768C808.589 101.339 810.797 114.638 810.871 127.87C811.024 139.494 809.348 151.131 805.648 162.295C799.527 181.149 787.85 198.22 773.993 213.37C767.78 213.33 761.55 213.33 755.34 213.37C768.343 197.76 776.977 179.487 781.362 160.497C787.24 135.331 786.005 108.84 777.601 84.241C772.789 69.9954 765.28 56.4524 755.34 44.4639H755.353Z" fill="white"/>
<path d="M706.111 77.2422C715.854 77.2422 725.601 77.2422 735.348 77.2422C735.348 85.9599 735.348 94.6641 735.348 103.382C725.588 103.382 715.841 103.382 706.094 103.382C706.094 94.6776 706.094 85.9599 706.094 77.2557L706.111 77.2422Z" fill="white"/>
<path d="M705.745 152.286C715.492 152.286 725.235 152.326 734.982 152.272C734.982 160.99 734.982 169.708 734.982 178.425C725.235 178.425 715.492 178.425 705.745 178.425C705.731 169.708 705.731 161.004 705.745 152.286Z" fill="white"/>
</g>
<defs>
<clipPath id="clip0_1_3075">
<rect width="813.944" height="322" fill="white" transform="translate(0.128906)"/>
</clipPath>
</defs>
</svg>
