<svg width="99" height="99" viewBox="0 0 99 99" fill="none" xmlns="http://www.w3.org/2000/svg">
<path d="M98.0365 39.8065H94.0493V39.6011H49.4996V59.4007H77.4744C73.3931 70.9266 62.4265 79.2004 49.4996 79.2004C33.0979 79.2004 19.7999 65.9025 19.7999 49.5009C19.7999 33.0993 33.0979 19.8014 49.4996 19.8014C57.0706 19.8014 63.9585 22.6575 69.203 27.3228L83.204 13.3219C74.3633 5.0828 62.5379 0.00170898 49.4996 0.00170898C22.1635 0.00170898 0 22.165 0 49.5009C0 76.8368 22.1635 99.0001 49.4996 99.0001C76.8358 99.0001 98.9993 76.8368 98.9993 49.5009C98.9993 46.182 98.6577 42.9423 98.0365 39.8065Z" fill="#FFC107"/>
<path d="M5.69873 26.4598L21.9618 38.3866C26.3624 27.4919 37.0196 19.7997 49.4911 19.7997C57.062 19.7997 63.9499 22.6558 69.1944 27.3211L83.1954 13.3202C74.3547 5.08109 62.5293 0 49.4911 0C30.4783 0 13.9899 10.7339 5.69873 26.4598Z" fill="#FF3D00"/>
<path d="M49.4899 98.9997C62.2757 98.9997 73.8932 94.1067 82.677 86.1497L67.3568 73.1858C62.3871 76.9502 56.2095 79.2 49.4899 79.2C36.6151 79.2 25.6831 70.9905 21.5647 59.5339L5.42285 71.9706C13.615 88.0009 30.2519 98.9997 49.4899 98.9997Z" fill="#4CAF50"/>
<path d="M98.0369 39.8036H94.0497V39.5981H49.5V59.3978H77.4747C75.5145 64.9343 71.953 69.7085 67.3595 73.1858L67.3669 73.1809L82.687 86.1447C81.603 87.1298 98.9996 74.2476 98.9996 49.498C98.9996 46.1791 98.6581 42.9393 98.0369 39.8036Z" fill="#1976D2"/>
</svg>
