<svg width="199" height="80" viewBox="0 0 199 80" fill="none" xmlns="http://www.w3.org/2000/svg">
<g clip-path="url(#clip0_1_3104)">
<path d="M140.699 80.1629V67.7656H143.198V78.0569H149.413V80.1629H140.699Z" fill="#4D2C19"/>
<path d="M132.725 80.1637H130.005L128.925 77.3244H123.977L122.956 80.1637H120.305L125.125 67.6641H127.768L132.725 80.1637ZM128.122 75.2184L126.417 70.58L124.745 75.2184H128.122Z" fill="#4D2C19"/>
<path d="M108.493 80.1637V69.7786H104.82V67.6641H114.656V69.7786H110.992V80.1637H108.493Z" fill="#4D2C19"/>
<path d="M86.668 80.1637V67.6641H89.0996L94.1655 76.0113V67.6641H96.4879V80.1637H93.9804L88.9904 72.0125V80.1637H86.668Z" fill="#4D2C19"/>
<path d="M68.5312 80.1637V67.6641H77.709V69.7786H71.0304V72.5496H77.2446V74.6556H71.0304V78.0577H77.9454V80.1637H68.5312Z" fill="#4D2C19"/>
<path d="M49.457 67.6641H54.0248C55.0549 67.6641 55.84 67.7436 56.3804 67.9028C57.1066 68.1188 57.7286 68.5025 58.2464 69.0539C58.7643 69.6052 59.1583 70.2817 59.4285 71.0831C59.6986 71.8789 59.8337 72.8623 59.8337 74.0332C59.8337 75.0621 59.7071 75.9489 59.4537 76.6935C59.1442 77.6029 58.7023 78.3391 58.1282 78.9018C57.6948 79.3281 57.1094 79.6606 56.372 79.8993C55.8204 80.0756 55.083 80.1637 54.1598 80.1637H49.457V67.6641ZM51.9562 69.7786V78.0577H53.8221C54.5201 78.0577 55.0239 78.0179 55.3335 77.9383C55.7387 77.836 56.0736 77.6626 56.3382 77.4182C56.6084 77.1738 56.828 76.773 56.9968 76.216C57.1657 75.6533 57.2501 74.8887 57.2501 73.9224C57.2501 72.9561 57.1657 72.2143 56.9968 71.697C56.828 71.1798 56.5916 70.7761 56.2875 70.4863C55.9836 70.1964 55.5981 70.0002 55.1308 69.8979C54.7818 69.8183 54.098 69.7786 53.0791 69.7786H51.9562Z" fill="#4D2C19"/>
<path d="M5.58202 16.9254C8.03069 15.0886 11.3068 14.4271 14.437 14.3901C17.451 14.3901 20.5811 14.8871 23.1459 16.3847C24.6847 17.3015 26.0288 18.6984 26.246 20.4009C26.4295 21.7676 26.2235 23.3827 24.9543 24.3062C23.6363 25.1927 21.9028 25.3337 20.3041 25.3438C20.2815 23.4868 20.1243 21.5325 19.1022 19.8737C18.4282 18.7689 17.1851 17.9429 15.7849 17.775C13.8716 17.5298 11.7824 17.8522 10.2322 18.9368C8.50617 20.2263 7.64505 22.1873 7.11338 24.0913C6.26346 27.2477 6.15862 30.5184 6.18483 33.7521C6.24099 36.3176 6.50309 38.9166 7.43164 41.3613C8.06437 42.9999 9.07905 44.5983 10.7003 45.599C12.7745 46.9085 15.4479 47.157 17.9078 46.9019C20.9892 46.5762 23.8235 44.82 25.2463 42.3485C26.4145 43.3693 26.6241 45.0181 26.0888 46.3512C25.5383 47.7783 24.269 48.8797 22.8463 49.6353C20.626 50.7971 18.0313 51.2572 15.4816 51.2974C12.6921 51.3613 9.83915 50.8844 7.39045 49.652C4.86314 48.366 2.97983 46.2303 1.83038 43.8629C0.115557 40.4008 -0.315018 36.5594 -0.296297 32.8085C-0.270088 29.5614 0.0144652 26.2672 1.16392 23.1678C2.02133 20.8039 3.41416 18.5238 5.58951 16.9321L5.58202 16.9254Z" fill="#E9811F"/>
<path d="M33.9087 3.63195C33.8825 2.69508 33.8638 1.75822 33.9162 0.824707C38.1284 0.865002 42.3405 0.811274 46.5564 0.854927C46.5378 14.9214 46.5564 28.9879 46.5489 43.0577C46.5415 44.3707 46.5378 45.7944 47.3802 46.9328C47.983 47.7958 49.0912 48.2659 50.1883 48.3935C51.0756 48.5111 51.9742 48.5312 52.8691 48.4976C52.929 49.4311 52.8841 50.368 52.8916 51.3014C46.5826 51.2982 40.27 51.3149 33.9611 51.2914L33.8975 51.2377C33.8675 50.331 33.8975 49.4177 33.89 48.5077C35.4663 48.4908 37.2148 48.5849 38.5627 47.7185C39.8769 46.8354 40.2438 45.2639 40.2363 43.8703C40.2363 31.9127 40.2363 19.955 40.2363 8.00066C40.2513 6.68434 39.8544 5.21691 38.6076 4.40093C37.2485 3.53794 35.4887 3.63531 33.905 3.63195H33.9087Z" fill="#E9811F"/>
<path d="M71.6051 14.4417C74.4282 14.2638 77.3523 14.5223 79.947 15.5902C82.1149 16.4598 83.9498 17.9239 85.2598 19.6936C86.7575 21.695 87.6373 24.0153 88.1543 26.3659C88.7872 29.3242 88.8689 32.3564 88.693 35.3585C88.4987 38.2395 87.9708 41.1509 86.6791 43.8138C85.691 45.8621 84.1441 47.719 82.0961 49.0086C79.947 50.382 77.3299 51.0703 74.7165 51.2416C71.8596 51.4397 68.9055 51.161 66.2883 50.0663C63.9857 49.1294 62.0687 47.5142 60.747 45.5935C59.3916 43.6358 58.5792 41.4129 58.0962 39.163C57.5457 36.5404 57.4297 33.8641 57.5196 31.2013C57.6394 28.4176 58.0251 25.6136 59.0584 22.9709C59.9346 20.748 61.3424 18.6358 63.4166 17.1483C65.708 15.4458 68.6697 14.623 71.6088 14.4417H71.6051ZM71.927 17.9441C70.3582 18.0817 68.8194 18.6459 67.6774 19.6365C65.9851 21.0804 65.1876 23.1388 64.6971 25.1402C63.9408 28.5015 63.8996 31.9569 64.0344 35.3685C64.2029 38.0918 64.4986 40.8822 65.723 43.4108C66.5317 45.1099 67.9508 46.668 69.9164 47.3463C71.781 47.981 73.8852 48.0113 75.8023 47.5344C77.8315 47.0273 79.4191 45.5734 80.3027 43.8944C81.7217 41.2483 82.0213 38.2664 82.201 35.3718C82.3396 31.9266 82.2909 28.4411 81.5158 25.0529C80.9917 22.9374 80.0931 20.7446 78.1685 19.3309C76.4463 18.0549 74.0949 17.746 71.9308 17.9441H71.927Z" fill="#E9811F"/>
<path d="M143.419 15.6064C145.834 14.5486 148.59 14.2597 151.252 14.4411C154.146 14.6292 157.033 15.6231 159.107 17.4767C161.346 19.4445 162.585 22.1409 163.211 24.8541C163.874 27.6278 163.78 30.4787 163.765 33.2994C156.336 33.2927 148.912 33.3195 141.487 33.2859C141.435 34.8037 141.607 36.3249 141.828 37.8293C142.221 40.1161 142.914 42.4532 144.509 44.3236C145.553 45.566 147.073 46.4693 148.762 46.8353C151.877 47.517 155.318 46.9898 157.962 45.3477C159.178 44.6023 160.268 43.6553 160.998 42.5002C161.578 42.7117 161.904 43.2523 162.125 43.7493C162.623 45.0891 161.979 46.5297 161.062 47.5975C159.444 49.4243 156.951 50.425 154.476 50.9589C150.986 51.5801 147.219 51.4424 143.962 50.0724C141.461 49.0482 139.417 47.2517 138.042 45.1362C135.916 41.8689 135.134 38.0408 134.994 34.3001C134.92 31.6037 135.066 28.887 135.627 26.2309C136.081 24.1322 136.807 22.057 138.024 20.2067C139.297 18.2692 141.147 16.6003 143.419 15.6164V15.6064ZM145.381 19.3773C144.082 20.4317 143.303 21.8891 142.764 23.3599C142.027 25.4149 141.719 27.5741 141.585 29.7232C146.726 29.7232 151.866 29.7467 157.003 29.7098C156.973 27.4901 156.82 25.2504 156.157 23.1013C155.674 21.5734 154.899 20.0288 153.465 19.0281C152.252 18.1349 150.612 17.8763 149.081 17.9838C147.721 18.0644 146.381 18.5445 145.377 19.3773H145.381Z" fill="#E9811F"/>
<path d="M92.7388 15.6729C98.3175 15.6761 103.896 15.6729 109.476 15.6729C109.49 16.5996 109.461 17.523 109.494 18.4499C108.258 18.4901 106.911 18.423 105.84 19.0811C104.87 19.652 104.574 20.7702 104.608 21.7507C104.631 23.0603 105.222 24.286 105.637 25.5251C106.847 28.8494 108.045 32.1738 109.255 35.4982C110.041 37.6204 110.753 39.7628 111.392 41.9219C111.857 43.4935 112.344 45.0684 112.632 46.6768C112.676 46.6634 112.774 46.6432 112.819 46.6298C113.849 43.3188 115.238 40.1086 116.443 36.8515C117.911 32.9092 119.375 28.9636 120.843 25.0247C121.348 23.7655 121.752 22.4223 121.573 21.0758C121.471 20.3068 121.068 19.5244 120.311 19.108C119.237 18.4867 117.918 18.4969 116.694 18.4431C116.739 17.5197 116.698 16.5962 116.717 15.6729C121.506 15.6829 126.29 15.6729 131.075 15.6762C131.06 16.6097 131.102 17.5465 131.053 18.4801C130.009 18.47 128.855 18.4196 127.953 18.9704C127.084 19.5411 126.597 20.4377 126.167 21.2974C125.268 23.1711 124.613 25.1322 123.853 27.0529C122.026 31.838 120.191 36.6231 118.364 41.4082C117.083 44.7057 115.87 48.0233 114.553 51.3075C112.53 51.2806 110.509 51.2974 108.484 51.3007C104.818 41.4585 101.239 31.5862 97.5954 21.7373C97.1835 20.7534 96.704 19.7057 95.7158 19.0745C94.8544 18.5203 93.7462 18.4835 92.728 18.4666C92.713 17.5365 92.7055 16.603 92.7355 15.6729H92.7388Z" fill="#E9811F"/>
<path d="M185.316 11.8154C186.847 11.8188 188.379 11.8188 189.91 11.8154C192.943 15.123 195.478 18.8302 197.155 22.8497C198.405 25.9458 198.948 29.2499 198.967 32.5374C199.004 35.4253 198.592 38.3165 197.682 41.0901C196.177 45.7745 193.306 50.0156 189.899 53.7798C188.371 53.7698 186.839 53.7698 185.312 53.7798C188.51 49.9014 190.633 45.3614 191.711 40.6435C193.156 34.391 192.853 27.8094 190.786 21.698C189.603 18.1587 187.757 14.794 185.312 11.8154H185.316Z" fill="#4D2C19"/>
<path d="M173.211 19.9585C175.607 19.9585 178.004 19.9585 180.4 19.9585C180.4 22.1244 180.4 24.2869 180.4 26.4528C178 26.4528 175.604 26.4528 173.207 26.4528C173.207 24.2903 173.207 22.1244 173.207 19.9619L173.211 19.9585Z" fill="#4D2C19"/>
<path d="M173.131 38.6025C175.528 38.6025 177.924 38.6125 180.32 38.5991C180.32 40.765 180.32 42.9309 180.32 45.0967C177.924 45.0967 175.528 45.0967 173.131 45.0967C173.128 42.9309 173.128 40.7684 173.131 38.6025Z" fill="#4D2C19"/>
</g>
<defs>
<clipPath id="clip0_1_3104">
<rect width="199" height="80" fill="white"/>
</clipPath>
</defs>
</svg>
