<svg width="119" height="120" viewBox="0 0 119 120" fill="none" xmlns="http://www.w3.org/2000/svg">
<path opacity="0.5" d="M115.187 84.1941V113.64C115.187 115.327 114.471 116.944 113.195 118.137C111.92 119.33 110.19 120 108.386 120H7.81133C6.91735 120.001 6.03188 119.838 5.20555 119.519C4.37922 119.2 3.62827 118.731 2.99564 118.141C2.36301 117.55 1.8611 116.848 1.51867 116.076C1.17624 115.304 0.999999 114.476 1 113.64V84.1941C1 82.5046 1.71762 80.8844 2.995 79.6897C4.27237 78.4951 6.00485 77.824 7.81133 77.824H33.409C33.7247 77.9944 33.9875 78.2389 34.1715 78.5332C34.3556 78.8275 34.4545 79.1614 34.4585 79.5023V100.399C34.4585 100.904 34.673 101.388 35.0548 101.746C35.4366 102.103 35.9546 102.303 36.4946 102.303H77.0792C77.3519 102.311 77.6234 102.268 77.8778 102.176C78.1321 102.083 78.3641 101.944 78.5599 101.767C78.7556 101.589 78.9112 101.377 79.0175 101.142C79.1237 100.907 79.1784 100.654 79.1783 100.399V79.5515C79.1823 79.2106 79.2812 78.8765 79.4652 78.5822C79.6493 78.2879 79.9121 78.0435 80.2278 77.8731H108.428C110.217 77.8859 111.928 78.556 113.192 79.7386C114.457 80.9213 115.173 82.5216 115.187 84.1941Z" fill="white"/>
<path opacity="0.5" d="M116.091 84.1943V113.64C116.088 115.328 115.369 116.946 114.092 118.138C112.815 119.331 111.084 120 109.28 120H8.69415C6.88948 120 5.15854 119.331 3.88146 118.138C2.60439 116.946 1.88559 115.328 1.88281 113.64V84.1943C1.88559 82.5056 2.60405 80.8869 3.88082 79.6929C5.1576 78.4988 6.88852 77.8268 8.69415 77.8242H34.2917C34.6075 77.9947 34.8703 78.2391 35.0543 78.5334C35.2384 78.8277 35.3372 79.1617 35.3413 79.5026V100.399C35.3413 100.904 35.5558 101.389 35.9376 101.746C36.3195 102.103 36.8373 102.303 37.3773 102.303H77.9621C78.5021 102.303 79.0199 102.103 79.4018 101.746C79.7836 101.389 79.9981 100.904 79.9981 100.399V79.5517C80.0022 79.2108 80.101 78.8767 80.285 78.5824C80.4691 78.2881 80.7319 78.0438 81.0476 77.8733H109.248C111.05 77.8681 112.781 78.5299 114.063 79.7142C115.345 80.8985 116.074 82.5091 116.091 84.1943Z" fill="#FFE5B3"/>
<path d="M116.971 78.4053V107.851C116.972 108.688 116.797 109.517 116.455 110.29C116.114 111.064 115.612 111.766 114.979 112.358C114.346 112.95 113.595 113.419 112.768 113.739C111.941 114.058 111.055 114.222 110.16 114.221H9.57428C8.68029 114.221 7.79513 114.056 6.96932 113.736C6.14352 113.416 5.39331 112.946 4.76165 112.355C4.13 111.763 3.62924 111.061 3.28808 110.288C2.94692 109.515 2.77207 108.687 2.77345 107.851V78.4053C2.77207 77.5692 2.94692 76.7412 3.28808 75.9684C3.62924 75.1956 4.13 74.4932 4.76165 73.9015C5.39331 73.3099 6.14352 72.8406 6.96932 72.5203C7.79513 72.2001 8.68029 72.0352 9.57428 72.0352H35.1824C35.5009 72.2002 35.7663 72.442 35.9509 72.7355C36.1355 73.029 36.2325 73.3634 36.232 73.7038V94.5121C36.2235 94.7663 36.2696 95.0194 36.3675 95.2566C36.4654 95.4939 36.6131 95.7103 36.8019 95.8932C36.9907 96.0762 37.2168 96.222 37.4668 96.3219C37.7168 96.4219 37.9856 96.474 38.2575 96.4752H78.8737C79.4137 96.4752 79.9316 96.2745 80.3134 95.9174C80.6952 95.5603 80.9098 95.0761 80.9098 94.5711V73.7038C80.9092 73.3634 81.0063 73.029 81.1909 72.7355C81.3754 72.442 81.6408 72.2002 81.9593 72.0352H110.149C111.045 72.0326 111.932 72.1956 112.761 72.5147C113.589 72.8338 114.342 73.3027 114.975 73.8946C115.609 74.4865 116.112 75.1897 116.454 75.9638C116.797 76.7379 116.972 77.5675 116.971 78.4053Z" stroke="#4D2C19" stroke-width="4.03362" stroke-miterlimit="10"/>
<path opacity="0.5" d="M102.311 26.5601V64.5254C102.313 64.7745 102.261 65.0216 102.16 65.252C102.059 65.4824 101.91 65.6917 101.721 65.8678C101.533 66.044 101.309 66.1836 101.063 66.2783C100.816 66.373 100.552 66.4211 100.286 66.4198H77.9837C77.7168 66.4198 77.4525 66.4691 77.2061 66.5649C76.9596 66.6607 76.7359 66.8012 76.5476 66.9781C76.3594 67.1551 76.2105 67.3651 76.1093 67.596C76.0081 67.827 75.9567 68.0743 75.9581 68.3239V89.1716C75.9581 89.6766 75.7436 90.1609 75.3618 90.518C74.9799 90.8751 74.4621 91.0757 73.9221 91.0757H33.3269C33.0595 91.0757 32.7947 91.0264 32.5477 90.9307C32.3007 90.835 32.0763 90.6948 31.8872 90.518C31.6981 90.3411 31.5481 90.1312 31.4458 89.9002C31.3434 89.6692 31.2908 89.4217 31.2908 89.1716V68.3239C31.2922 68.0743 31.2408 67.827 31.1396 67.596C31.0385 67.3651 30.8895 67.1551 30.7012 66.9781C30.513 66.8012 30.2893 66.6607 30.0428 66.5649C29.7964 66.4691 29.5321 66.4198 29.2653 66.4198H6.96308C6.69669 66.4211 6.43264 66.373 6.18626 66.2783C5.93988 66.1836 5.71606 66.044 5.52769 65.8678C5.33932 65.6917 5.19013 65.4824 5.08883 65.252C4.98753 65.0216 4.93614 64.7745 4.93753 64.5254V26.5601C4.93614 26.3105 4.98753 26.0631 5.0887 25.8321C5.18988 25.6011 5.33882 25.3912 5.52705 25.2142C5.71528 25.0373 5.93905 24.8969 6.18549 24.8011C6.43193 24.7053 6.6962 24.6559 6.96308 24.6559H29.2653C29.5321 24.6559 29.7964 24.6066 30.0428 24.5108C30.2893 24.415 30.513 24.2746 30.7012 24.0977C30.8895 23.9207 31.0385 23.7106 31.1396 23.4797C31.2408 23.2487 31.2922 23.0014 31.2908 22.7518V1.90422C31.2908 1.65416 31.3434 1.40653 31.4458 1.17551C31.5481 0.944482 31.6981 0.734556 31.8872 0.557739C32.0763 0.380921 32.3007 0.240669 32.5477 0.144976C32.7947 0.0492833 33.0595 0 33.3269 0H73.9221C74.4621 0 74.9799 0.20064 75.3618 0.557739C75.7436 0.914838 75.9581 1.39921 75.9581 1.90422V22.7518C75.9567 23.0014 76.0081 23.2487 76.1093 23.4797C76.2105 23.7106 76.3594 23.9207 76.5476 24.0977C76.7359 24.2746 76.9596 24.415 77.2061 24.5108C77.4525 24.6066 77.7168 24.6559 77.9837 24.6559H100.286C100.553 24.6559 100.817 24.7053 101.063 24.8011C101.31 24.8969 101.534 25.0373 101.722 25.2142C101.91 25.3912 102.059 25.6011 102.16 25.8321C102.261 26.0631 102.313 26.3105 102.311 26.5601Z" fill="#FFE5B3"/>
<path d="M107.278 31.9377V69.9032C107.275 70.4065 107.059 70.8882 106.678 71.2432C106.296 71.5981 105.78 71.7974 105.242 71.7974H82.95C82.4108 71.8 81.8945 72.0015 81.5133 72.358C81.1321 72.7146 80.9167 73.1974 80.9139 73.7016V94.5099C80.9139 94.76 80.8612 95.0076 80.7589 95.2386C80.6566 95.4697 80.5066 95.6796 80.3175 95.8564C80.1285 96.0332 79.904 96.1735 79.657 96.2692C79.41 96.3649 79.1452 96.414 78.8778 96.414H38.2616C37.9943 96.414 37.7295 96.3649 37.4825 96.2692C37.2354 96.1735 37.011 96.0332 36.822 95.8564C36.6329 95.6796 36.4829 95.4697 36.3806 95.2386C36.2783 95.0076 36.2256 94.76 36.2256 94.5099V73.7016C36.2261 73.3612 36.1291 73.0268 35.9445 72.7333C35.7599 72.4398 35.4945 72.198 35.1761 72.033C34.876 71.8815 34.541 71.8006 34.2 71.7974H11.9189C11.3807 71.7974 10.8644 71.5981 10.4828 71.2432C10.1013 70.8882 9.88559 70.4065 9.88281 69.9032V31.9377C9.88281 31.6881 9.93551 31.4411 10.038 31.2106C10.1404 30.9801 10.2906 30.7708 10.4798 30.5947C10.669 30.4187 10.8935 30.2793 11.1404 30.1847C11.3874 30.0901 11.652 30.042 11.9189 30.0433H34.2105C34.4779 30.0433 34.7426 29.9942 34.9897 29.8985C35.2367 29.8028 35.4612 29.6625 35.6502 29.4857C35.8393 29.3089 35.9893 29.099 36.0916 28.868C36.1939 28.6369 36.2466 28.3893 36.2466 28.1392V7.28185C36.2494 6.77853 36.4651 6.29669 36.8466 5.94172C37.2282 5.58674 37.7445 5.38744 38.2827 5.38745H78.8778C79.416 5.38744 79.9323 5.58674 80.3138 5.94172C80.6954 6.29669 80.9111 6.77853 80.9139 7.28185V28.1392C80.9139 28.3893 80.9665 28.6369 81.0689 28.868C81.1712 29.099 81.3212 29.3089 81.5102 29.4857C81.6993 29.6625 81.9237 29.8028 82.1708 29.8985C82.4178 29.9942 82.6826 30.0433 82.95 30.0433H105.242C105.509 30.042 105.773 30.0901 106.02 30.1847C106.267 30.2793 106.491 30.4187 106.681 30.5947C106.87 30.7708 107.02 30.9801 107.122 31.2106C107.225 31.4411 107.278 31.6881 107.278 31.9377Z" stroke="#4D2C19" stroke-width="4.03362" stroke-miterlimit="10"/>
</svg>
