<svg width="24" height="24" viewBox="0 0 24 24" fill="none" xmlns="http://www.w3.org/2000/svg">
<path d="M21.2984 8.15288C21.2984 11.7167 18.2141 14.6058 14.4094 14.6058C12.5319 14.6058 10.8298 13.9022 9.58716 12.7612C8.31176 11.59 7.52046 9.95802 7.52046 8.15288C7.52046 4.58903 10.6048 1.69995 14.4094 1.69995C18.2141 1.69995 21.2984 4.58903 21.2984 8.15288Z" fill="#FFEFE2"/>
<path d="M1.01866 21.2515C0.55003 21.7201 0.55003 22.4799 1.01866 22.9486C1.48729 23.4172 2.24709 23.4172 2.71572 22.9486L1.01866 21.2515ZM8.81866 13.4515L1.01866 21.2515L2.71572 22.9486L10.5157 15.1486L8.81866 13.4515Z" fill="#EA7D28"/>
<path d="M21.3 8.56617C21.3 12.3529 18.2141 15.4323 14.3953 15.4323C12.5112 15.4323 10.8063 14.6836 9.56003 13.4677C8.28084 12.2196 7.49061 10.4852 7.49061 8.56617C7.49061 4.77947 10.5766 1.7 14.3953 1.7C18.2141 1.7 21.3 4.77947 21.3 8.56617Z" stroke="#EA7D28" stroke-width="2.4"/>
</svg>
