<svg width="53" height="90" viewBox="0 0 53 90" fill="none" xmlns="http://www.w3.org/2000/svg">
<path opacity="0.5" d="M21.2418 2.02393H12.3953C11.4114 2.02393 10.6138 2.82155 10.6138 3.80548V16.7781C10.6138 17.7621 11.4114 18.5597 12.3953 18.5597H21.2418C22.2257 18.5597 23.0233 17.7621 23.0233 16.7781V3.80548C23.0233 2.82155 22.2257 2.02393 21.2418 2.02393Z" fill="#FFF2D9"/>
<path d="M18.6812 1H9.83478C8.85085 1 8.05322 1.79762 8.05322 2.78156V15.7542C8.05322 16.7381 8.85085 17.5358 9.83478 17.5358H18.6812C19.6651 17.5358 20.4628 16.7381 20.4628 15.7542V2.78156C20.4628 1.79762 19.6651 1 18.6812 1Z" fill="#FFF2D9"/>
<path d="M48.3899 53.4435C48.0418 54.7183 47.366 57.191 46.6953 59.6534C46.5066 60.2977 46.2669 60.926 45.9786 61.5323C44.6834 64.3633 44.4735 67.353 44.366 70.3786C44.2176 74.5612 43.6646 78.6977 42.0264 82.6653C41.6856 83.4879 41.2528 84.2694 40.7363 84.9946C38.4888 88.1636 34.081 88.2967 31.7824 85.1431C30.8641 83.7563 30.1551 82.2417 29.6783 80.6482C28.9513 78.5186 28.4804 76.3069 27.8404 74.1516C27.6168 73.4405 27.2964 72.7635 26.8882 72.1397C25.6288 70.1892 23.0281 69.9742 21.6612 71.8581C20.7437 73.2445 20.0121 74.7454 19.4854 76.3223C18.4974 78.923 17.6783 81.5851 16.7261 84.2011C16.4717 84.7932 16.1147 85.3357 15.6715 85.8035C15.2472 86.3235 14.7151 86.7454 14.1121 87.04C13.509 87.3347 12.8492 87.495 12.1782 87.5101C11.5072 87.5252 10.8409 87.3946 10.2252 87.1274C9.60947 86.8602 9.05905 86.4627 8.61178 85.9622C6.99206 84.1901 5.92455 81.9839 5.54011 79.6141C4.86735 76.1766 4.39216 72.7033 4.11688 69.2114C3.96171 66.6906 3.46044 64.2031 2.62714 61.8189C1.60325 59.0032 0.579359 56.1466 0.164684 53.2285C-0.531561 48.1961 1.97185 44.3207 6.36945 41.5306C8.85751 39.9487 11.6681 40.1432 14.4377 40.8753C15.8558 41.2439 17.2636 41.6381 18.6459 42.1039C22.1247 43.3089 25.9043 43.3305 29.3967 42.1654C31.1373 41.6125 32.9189 41.1415 34.7056 40.7217C36.2708 40.3233 37.9095 40.3127 39.4796 40.6909C41.0498 41.0692 42.5039 41.8249 43.7158 42.8924C46.7926 45.4418 48.4053 48.5801 48.3899 53.4435Z" fill="#FFF2D9"/>
<path d="M22.3879 39.6211C23.4433 39.8597 24.4722 40.2027 25.4596 40.645C26.6302 41.2006 27.7504 41.8567 28.8077 42.6057C30.103 43.389 32.2531 44.0699 35.9289 43.3992" stroke="#4D2C19" stroke-width="2.55972" stroke-miterlimit="10" stroke-linecap="round"/>
<path d="M50.9505 51.3704C50.6023 52.7424 49.9265 55.3994 49.2559 58.0257C49.0697 58.7256 48.8301 59.4102 48.5391 60.0735C47.2439 63.1451 47.0341 66.3346 46.9266 69.5957C46.7781 74.0905 46.2252 78.5445 44.5869 82.7834C44.2498 83.6625 43.8171 84.502 43.2968 85.2867C41.0494 88.7014 36.6416 88.8396 34.3429 85.4506C33.4181 83.9447 32.7098 82.316 32.2388 80.6127C31.5119 78.3192 31.0409 75.9438 30.401 73.6196C30.1794 72.8609 29.8592 72.1345 29.4488 71.4591C28.1894 69.3601 25.5887 69.1298 24.2218 71.1571C23.2996 72.661 22.5687 74.2742 22.046 75.9591C21.0579 78.7594 20.2388 81.6212 19.2866 84.4318C19.0368 85.0632 18.6801 85.6469 18.232 86.1571C16.3225 88.5427 13.1894 88.6246 11.1723 86.3311C9.5336 84.3844 8.46991 82.0195 8.10065 79.5018C7.42754 75.7994 6.95245 72.0637 6.67743 68.3107C6.52429 65.6059 6.0236 62.932 5.18768 60.3551C4.16379 57.3244 3.13991 54.2475 2.72523 51.1093C2.02899 45.6981 4.53239 41.5258 8.93 38.5258C11.4181 36.8261 14.2286 37.036 16.9982 37.8193C18.4163 38.2186 19.8241 38.6384 21.2064 39.1401C24.6683 40.4387 28.4795 40.4622 31.9572 39.2066C33.6979 38.6128 35.4795 38.1008 37.2662 37.6708C40.6706 36.821 43.6604 37.6708 46.2764 40.0053C49.3532 42.7595 50.9658 46.1281 50.9505 51.3704Z" stroke="#4D2C19" stroke-width="2.55972" stroke-miterlimit="10" stroke-linecap="round"/>
<path d="M12.2231 19.5698L16.6464 19.6773" stroke="#4D2C19" stroke-width="2.55972" stroke-miterlimit="10" stroke-linecap="round"/>
<path d="M12.2358 2H15.8194C17.0414 2 18.2133 2.48542 19.0774 3.34949C19.9415 4.21357 20.4269 5.38551 20.4269 6.6075V16.7593C20.4269 17.2318 20.2392 17.685 19.9051 18.0191C19.571 18.3532 19.1179 18.5409 18.6454 18.5409H9.83478C9.36228 18.5409 8.90912 18.3532 8.57501 18.0191C8.2409 17.685 8.05322 17.2318 8.05322 16.7593V6.20306C8.05455 5.09229 8.49498 4.02709 9.2785 3.23974C10.062 2.45239 11.1251 2.00676 12.2358 2Z" stroke="#4D2C19" stroke-width="2.04778" stroke-miterlimit="10" stroke-linecap="round"/>
<path d="M14.4517 19.0476V34.3676" stroke="#4D2C19" stroke-width="2.55972" stroke-miterlimit="10" stroke-linecap="round"/>
</svg>
