<svg width="63" height="77" viewBox="0 0 63 77" fill="none" xmlns="http://www.w3.org/2000/svg">
<path opacity="0.5" d="M61.8039 14.2594L57.9107 18.9613L48.6782 21.4944L43.8585 16.8568C43.4961 16.5076 43.2346 16.0671 43.1017 15.5816C42.9688 15.0962 42.9694 14.5839 43.1035 14.0988L45.2456 6.47833L49.9689 2.60645" fill="#F3EBD9"/>
<path opacity="0.5" d="M58.5903 12.653L54.6971 17.3549L45.4646 19.8879L40.6449 15.2503C40.2824 14.9012 40.0209 14.4606 39.888 13.9752C39.7551 13.4898 39.7558 12.9775 39.8898 12.4924L42.0319 4.87189L46.7553 1" fill="#FFE5B3"/>
<path opacity="0.5" d="M60.6314 65.8249C60.6314 68.5235 59.5594 71.1116 57.6512 73.0197C55.743 74.9279 53.155 75.9999 50.4564 75.9999H11.3631C9.0912 75.9981 6.88519 75.236 5.09663 73.835C3.30806 72.434 2.03984 70.4748 1.49403 68.2694C0.948223 66.064 1.15624 63.7393 2.08493 61.6658C3.01361 59.5923 4.60953 57.8893 6.61841 56.8281C6.75765 57.4922 6.90224 58.1723 7.05219 58.8631C7.16465 59.3987 7.28244 59.9342 7.40026 60.4697H55.0084C55.1048 59.9663 55.1958 59.4576 55.2868 58.9542C55.3993 58.3223 55.5118 57.6903 55.6189 57.0584C57.1451 57.957 58.4103 59.2385 59.2894 60.776C60.1685 62.3135 60.6311 64.0538 60.6314 65.8249Z" fill="#F3EBD9"/>
<path opacity="0.5" d="M61.1663 63.6134C61.1663 65.477 60.0256 67.1747 58.1834 68.3957C56.0276 69.7364 53.5297 70.4246 50.9914 70.3771H11.8981C6.28045 70.3771 1.72314 67.346 1.72314 63.6134C1.72314 61.7498 2.86381 60.0522 4.70602 58.8312C5.46869 58.331 6.29084 57.928 7.15337 57.6316C7.2926 58.0707 7.43719 58.5259 7.58714 58.9865L7.93521 60.0575H55.5433C55.6397 59.7255 55.7308 59.3828 55.8218 59.0507C55.9343 58.6277 56.0467 58.21 56.1538 57.7923C59.1528 58.9597 61.1663 61.1339 61.1663 63.6134Z" fill="#FFE5B3"/>
<path opacity="0.5" d="M53.4029 57.5833C53.3012 58.167 53.1941 58.7508 53.087 59.3345C53.0013 59.8004 52.9156 60.2717 52.8246 60.7376H7.80305C7.69595 60.2342 7.58349 59.7361 7.47639 59.2541C7.3318 58.6115 7.19791 57.9849 7.06403 57.3691C5.08259 47.9653 4.46675 41.6569 8.45641 38.3795C11.616 35.7715 17.1105 35.5412 20.9716 36.8425C25.968 38.5348 26.6481 42.2299 30.3593 42.1977C34.0705 42.1656 34.4347 38.5937 39.7417 36.8425C42.896 35.8036 47.6514 35.5679 50.6985 37.6136C55.4701 40.8161 54.9078 48.9025 53.4029 57.5833Z" fill="#FFE5B3"/>
<path d="M56.1501 56.5231C56.043 57.155 55.9306 57.7869 55.8181 58.4188C55.7271 58.9222 55.636 59.4309 55.5396 59.9343H7.93688C7.81906 59.3988 7.70127 58.8633 7.58881 58.3278C7.43886 57.6369 7.29427 56.9568 7.15504 56.2927C5.05578 46.1178 4.4078 39.306 8.62773 35.7608C11.9694 32.944 17.7798 32.6923 21.8605 34.1007C27.1461 35.9268 27.8638 39.9272 31.7891 39.895C35.7145 39.8629 36.1001 36.0018 41.7124 34.1007C45.0433 32.9761 50.0773 32.7244 53.2958 34.9308C58.3458 38.3956 57.746 47.1407 56.1501 56.5231Z" stroke="#4D2C19" stroke-width="2.67762" stroke-miterlimit="10"/>
<path d="M28.0671 38.3262C32.1134 41.3343 37.0993 42.8019 42.13 42.4658" stroke="#4D2C19" stroke-width="2.67762" stroke-miterlimit="10" stroke-linecap="round"/>
<path d="M61.1675 65.2895C61.1675 67.9881 60.0955 70.5762 58.1873 72.4843C56.2792 74.3925 53.6911 75.4645 50.9925 75.4645H11.8993C9.62733 75.4627 7.42133 74.7006 5.63276 73.2996C3.84419 71.8986 2.57597 69.9394 2.03016 67.734C1.48436 65.5286 1.69238 63.2039 2.62106 61.1304C3.54974 59.0569 5.14566 57.3539 7.15455 56.2927C7.29378 56.9568 7.43837 57.6369 7.58832 58.3277C7.70078 58.8633 7.81857 59.3988 7.93639 59.9343H55.5445C55.6409 59.4309 55.7319 58.9222 55.823 58.4188C55.9354 57.7869 56.0479 57.1549 56.155 56.523C57.6812 57.4216 58.9464 58.7031 59.8255 60.2406C60.7047 61.7781 61.1672 63.5184 61.1675 65.2895Z" stroke="#4D2C19" stroke-width="2.67762" stroke-miterlimit="10" stroke-linecap="round"/>
<path d="M58.0563 13.724L54.1631 18.4259L44.9253 20.959L38.8953 15.17L41.4658 5.94288L46.1891 2.07104" stroke="#4D2C19" stroke-width="2.67762" stroke-miterlimit="10" stroke-linecap="round"/>
<path d="M41.4648 5.94287L54.1621 18.4259" stroke="#4D2C19" stroke-width="2.67762" stroke-miterlimit="10" stroke-linecap="round"/>
<path d="M38.8894 17.8262L42.1615 21.0982" stroke="#4D2C19" stroke-width="2.67762" stroke-miterlimit="10" stroke-linecap="round"/>
</svg>
