<svg width="55" height="77" viewBox="0 0 55 77" fill="none" xmlns="http://www.w3.org/2000/svg">
<path opacity="0.5" d="M9.91753 43.078H44.5798C45.9634 43.078 15.7358 42.3937 15.3934 43.078C14.3803 45.1044 43.3702 48.8199 42.9025 51.5792C41.9024 57.4502 42.4132 60.5247 39.105 66.897C37.6653 69.668 35.9037 70.4168 34.7016 70.2846C33.5017 70.1587 38.5337 71.1393 38.5337 69.3001L41.7824 62.4254L42.3527 55.5508C42.3527 53.6523 44.2849 50.9617 43.4025 49.7338C42.5179 48.5122 33.0535 45.6431 31.3383 45.6431C29.621 45.6431 25.8775 44.4204 24.9941 45.6431C24.1117 46.872 21.9656 59.3962 21.9656 61.2947L21.333 66.897C21.333 68.7362 24.6256 57.0114 23.4214 57.1372C22.2236 57.2695 26.4284 48.4141 24.9941 45.6431C21.6804 39.2708 25.3148 51.903 24.32 46.0321C23.8513 43.2727 30.5585 45.0864 29.5065 43.078C28.8229 41.7718 9.00596 43.078 9.91753 43.078ZM21.9656 40.8812L36.9938 41.4323C37.7877 41.4323 40.0039 41.2842 40.234 41.4323C40.4597 41.5814 38.3868 36.3207 38.5337 36.7501L39.9323 40.8812H14.5693L17.0127 40.9035C17.9272 41.1458 18.9417 41.5814 19.1729 41.4323C19.4029 41.2842 21.1717 40.8812 21.9656 40.8812ZM17.9272 33.5C16.8645 33.5 15.9648 33.6861 15.2444 34.1536C14.524 34.6222 14.0855 35.3392 13.8381 36.0605L12.2062 40.8812H9.91753C8.58365 40.8812 7.37939 41.6036 6.95817 42.6877C6.54234 43.7792 6.78428 44.9849 7.43123 46.1314C8.44433 47.9325 8.93899 49.3265 9.3829 51.9431C10.3409 57.5612 9.9078 61.1794 13.3953 67.9007C15.1104 71.2005 17.6875 72.7267 20.0442 72.4729C22.4019 72.2201 24.2067 70.1143 24.2067 67.4004V61.2957C24.2067 59.649 24.5221 58.493 24.9941 57.8362C25.4671 57.1805 26.059 56.8685 27.2514 56.8685C28.4492 56.8685 29.0335 57.1805 29.5065 57.8362C29.9785 58.493 30.2993 59.649 30.2993 61.2957V67.4004C30.2993 70.1143 32.0998 72.2211 34.4575 72.4729C36.8196 72.7267 39.3956 71.2005 41.1064 67.9007C44.6004 61.1794 44.1662 57.5612 45.1166 51.9431C45.5616 49.3254 46.0552 47.9325 47.0737 46.1314C47.7217 44.9849 47.9636 43.7792 47.5424 42.6877C47.1201 41.6036 45.9223 40.8812 44.5831 40.8812H42.2987L40.6614 36.0605C40.4184 35.3392 39.9701 34.6222 39.2497 34.1536C38.5293 33.6861 37.6351 33.5 36.5712 33.5H17.9272Z" fill="#FFE5B3"/>
<path d="M10.0214 42.8415H48.5267C50.0636 42.8415 49.4877 44.3233 49.1074 45.0995C47.982 47.3983 47.1829 49.3552 46.6634 52.4855C45.5524 59.1456 46.1199 62.6335 42.4449 69.8623C40.8455 73.0058 38.8887 73.8552 37.5533 73.7052C36.2203 73.5625 35.1477 72.5186 35.1477 70.4322V63.5069C35.1477 61.3533 34.7973 59.5392 33.8171 58.1462C32.8345 56.7604 31.1787 55.9829 29.2734 55.9829C27.3658 55.9829 25.7112 56.7592 24.7298 58.1462C23.7495 59.5404 23.4052 61.3533 23.4052 63.5069V70.4322C23.4052 72.5186 22.3302 73.5625 20.9924 73.7052C19.6618 73.8552 17.6977 73.0058 16.1044 69.8623C12.4234 62.6335 12.9933 59.1456 11.8883 52.4855C11.3676 49.3552 10.6129 47.378 9.44429 45.0995C8.68481 43.6178 9.00876 42.8415 10.0214 42.8415ZM18.9191 34.4753H39.6277C40.5096 34.4753 40.9787 34.6324 41.2343 34.8004C41.485 34.9696 41.647 35.176 41.8102 35.6631L43.3639 40.3495H15.1889L16.7463 35.6631C16.9011 35.176 17.0642 34.9696 17.321 34.8004C17.5766 34.6324 18.0373 34.4753 18.9191 34.4753ZM18.9191 31.9761C17.7385 31.9761 16.7391 32.1872 15.9388 32.7176C15.1386 33.2491 14.6514 34.0625 14.3767 34.8808L12.5638 40.3495H10.0214C8.53964 40.3495 7.20186 41.169 6.73393 42.3988C6.27201 43.637 6.54076 45.0047 7.25945 46.3053C8.38486 48.3486 8.93437 49.9299 9.42749 52.8982C10.4917 59.2716 10.0106 63.3761 13.8848 71.0009C15.79 74.7443 18.6528 76.4756 21.2708 76.1876C23.8899 75.9009 25.8948 73.5121 25.8948 70.4334V63.5081C25.8948 61.64 26.2451 60.3286 26.7695 59.5836C27.295 58.8397 27.9525 58.4857 29.277 58.4857C30.6076 58.4857 31.2567 58.8397 31.7822 59.5836C32.3065 60.3286 32.6629 61.64 32.6629 63.5081V70.4334C32.6629 73.5121 34.663 75.9021 37.2821 76.1876C39.9061 76.4756 42.7676 74.7443 44.6681 71.0009C48.5495 63.3761 48.0672 59.2716 49.123 52.8982C49.6173 49.9287 50.1656 48.3486 51.297 46.3053C52.0169 45.0047 52.2857 43.637 51.8177 42.3988C51.3486 41.169 50.018 40.3495 48.5303 40.3495H45.9927L44.1738 34.8808C43.9039 34.0625 43.4059 33.2491 42.6057 32.7176C41.8054 32.1872 40.812 31.9761 39.6301 31.9761H18.9191Z" fill="#4D2C19"/>
<path opacity="0.5" d="M11.7737 25.3034C14.9898 25.3034 20.0813 24.6066 22.2959 25.9375C25.9261 28.1066 33.057 25.5178 35.668 25.9375C37.1034 26.1521 48.3836 25.1104 46.9503 24.8958C45.4137 24.6654 49.6423 16.51 48.5052 16.0417C49.7726 15.7119 30.8898 6.31395 31.765 5.98414C31.765 8.75 33.6941 12.9167 36.2029 12.9167C39.6046 12.9167 38.1925 12.0526 39.9471 15.5208C41.7027 18.9891 47.5559 18.3686 46.3657 22.8125C46.0235 24.0947 45.4241 25.3034 43.3472 25.3034L9.99358 24.8958C7.91249 24.8958 6.8972 24.2294 6.55505 22.9471C5.36585 18.5021 6.42491 24.8958 6.78428 24.8958C7.14366 24.8958 8.36784 25.3034 11.7737 25.3034ZM15.6722 2.5C11.3254 2.5 7.78806 5.39008 5.76747 9.38161C3.74687 13.3784 3.12098 18.5434 4.45726 23.5254C5.06646 25.7981 7.279 27.5 10.1571 27.5H43.3472C46.2232 27.5 48.4336 25.7991 49.0418 23.5254C50.3781 18.5434 49.7595 13.3784 47.7337 9.38161C45.7121 5.39008 42.1757 2.5 37.8331 2.5C34.9873 2.5 32.9156 3.19874 31.0035 3.93023C29.25 4.59725 27.5163 5.21988 25.2933 5.5666C24.9574 5.37315 24.4556 5.29598 24.1197 5.09937C21.8342 3.79388 19.3661 2.5 15.6722 2.5Z" fill="#FFE5B3"/>
<path d="M16.275 3.3089C19.8819 3.3089 22.0709 4.4461 24.5548 5.97901C28.6262 8.47744 31.3756 9.42836 34.304 9.91173C35.9139 10.1589 36.2661 7.65316 34.6585 7.40599C32.9352 7.14056 31.5581 6.76556 30.2829 6.22618C31.7044 5.8463 33.3423 5.1742 34.3239 4.79433C36.4146 3.97004 38.3158 3.3089 41.1296 3.3089C44.9448 3.3089 48.1014 5.867 50.0692 9.86181C52.0383 13.8566 52.6899 19.2139 51.355 24.3325C50.9713 25.8094 49.6434 27.0464 47.314 27.0464H10.0894C7.75532 27.0464 6.43327 25.8094 6.04952 24.3325C4.71577 19.2127 5.36744 13.8566 7.33414 9.86181C9.30318 5.867 12.455 3.3089 16.275 3.3089ZM16.275 0.78125C11.3997 0.78125 7.43242 4.11006 5.16621 8.70756C2.9 13.3112 2.19802 19.2602 3.69674 24.9985C4.37999 27.6163 6.86148 29.5765 10.0894 29.5765H47.314C50.5395 29.5765 53.0187 27.6175 53.7008 24.9985C55.1995 19.2602 54.5057 13.3112 52.2337 8.70756C49.9663 4.11006 46.0001 0.78125 41.1296 0.78125C37.9379 0.78125 35.6144 1.58606 33.4699 2.42861C31.5032 3.19689 29.5587 3.91403 27.0655 4.31339C26.6888 4.09058 26.126 4.00169 25.7493 3.77523C23.1859 2.27154 20.4178 0.78125 16.275 0.78125Z" fill="#4D2C19"/>
</svg>
