<svg width="79" height="76" viewBox="0 0 79 76" fill="none" xmlns="http://www.w3.org/2000/svg">
<path opacity="0.5" d="M66.4861 51.6016C66.3653 52.2944 66.2382 52.9872 66.1111 53.68C66.0094 54.233 65.9077 54.7923 65.7996 55.3453H12.3653C12.2382 54.7478 12.1047 54.1567 11.9776 53.5847C11.806 52.8219 11.6471 52.0783 11.4882 51.3474C9.13648 40.1863 8.40557 32.6991 13.1407 28.8092C16.8907 25.7139 23.4119 25.4406 27.9945 26.9851C33.9246 28.9936 34.7318 33.3792 39.1365 33.341C43.5411 33.3029 43.9734 29.0635 50.2721 26.9851C54.0157 25.752 59.6598 25.4723 63.2763 27.9003C68.9395 31.7012 68.2721 41.2986 66.4861 51.6016Z" fill="#FFE0A3"/>
<path opacity="0.5" d="M73.8306 62.9236C73.8306 66.1264 72.5583 69.1981 70.2935 71.4628C68.0288 73.7276 64.9571 74.9999 61.7543 74.9999H15.356C12.6595 74.9978 10.0413 74.0933 7.91852 72.4305C5.79573 70.7677 4.29053 68.4423 3.64273 65.8248C2.99493 63.2073 3.24182 60.4482 4.34404 57.9873C5.44626 55.5264 7.3404 53.5051 9.72467 52.2456C9.88992 53.0337 10.0615 53.841 10.2395 54.6609C10.373 55.2965 10.5128 55.9321 10.6526 56.5677H67.1569C67.2713 55.9702 67.3793 55.3664 67.4874 54.769C67.6209 54.019 67.7543 53.2689 67.8814 52.5189C69.6929 53.5855 71.1945 55.1063 72.2379 56.9312C73.2813 58.756 73.8303 60.8215 73.8306 62.9236Z" fill="#F9F5EC"/>
<path d="M68.5113 51.8833C68.3841 52.6333 68.2507 53.3833 68.1172 54.1333C68.0091 54.7308 67.9011 55.3346 67.7867 55.932H11.2888C11.1489 55.2964 11.0091 54.6609 10.8757 54.0253C10.6977 53.2053 10.5261 52.3981 10.3608 51.61C7.86931 39.5337 7.10024 31.449 12.1087 27.2414C16.0748 23.8981 22.971 23.5994 27.8142 25.271C34.0875 27.4384 34.9392 32.1863 39.5981 32.1481C44.257 32.11 44.7146 27.5274 51.3756 25.271C55.329 23.9363 61.3036 23.6376 65.1235 26.2562C71.1172 30.3685 70.4053 40.7477 68.5113 51.8833Z" stroke="#4D2C19" stroke-width="3" stroke-miterlimit="10"/>
<path d="M37.1821 31.2861C41.9845 34.8564 47.902 36.5983 53.8728 36.1993" stroke="#4D2C19" stroke-width="3" stroke-miterlimit="10"/>
<path d="M74.4658 62.2881C74.4658 65.4909 73.1935 68.5626 70.9288 70.8273C68.6641 73.0921 65.5924 74.3644 62.3896 74.3644H15.9913C13.2948 74.3623 10.6766 73.4578 8.55377 71.795C6.43099 70.1322 4.92579 67.8068 4.27799 65.1893C3.63019 62.5718 3.87708 59.8127 4.9793 57.3518C6.08151 54.8909 7.97565 52.8696 10.3599 51.6101C10.5252 52.3982 10.6968 53.2055 10.8747 54.0254C11.0082 54.661 11.148 55.2966 11.2879 55.9322H67.7921C67.9065 55.3347 68.0146 54.7309 68.1226 54.1335C68.2561 53.3835 68.3896 52.6334 68.5167 51.8834C70.3281 52.95 71.8297 54.4708 72.8731 56.2957C73.9165 58.1205 74.4655 60.186 74.4658 62.2881Z" stroke="#4D2C19" stroke-width="3.17797" stroke-miterlimit="10" stroke-linecap="round"/>
</svg>
