<svg width="113" height="50" viewBox="0 0 113 50" fill="none" xmlns="http://www.w3.org/2000/svg">
<g opacity="0.5">
<path d="M25.0287 21.6511H19.8576C18.636 21.6511 17.6458 22.6414 17.6458 23.863V26.8222C17.6458 28.0438 18.636 29.0341 19.8576 29.0341H25.0287C26.2503 29.0341 27.2406 28.0438 27.2406 26.8222V23.863C27.2406 22.6414 26.2503 21.6511 25.0287 21.6511Z" fill="#FFE5B3"/>
<path d="M57.852 21.6511H52.6809C51.4593 21.6511 50.469 22.6414 50.469 23.863V26.8222C50.469 28.0438 51.4593 29.0341 52.6809 29.0341H57.852C59.0736 29.0341 60.0639 28.0438 60.0639 26.8222V23.863C60.0639 22.6414 59.0736 21.6511 57.852 21.6511Z" fill="#FFE5B3"/>
<path d="M90.6752 21.6511H85.5041C84.2825 21.6511 83.2922 22.6414 83.2922 23.863V26.8222C83.2922 28.0438 84.2825 29.0341 85.5041 29.0341H90.6752C91.8968 29.0341 92.8871 28.0438 92.8871 26.8222V23.863C92.8871 22.6414 91.8968 21.6511 90.6752 21.6511Z" fill="#FFE5B3"/>
<path d="M19.7024 1.44629C21.5506 1.44629 23.3808 1.81033 25.0883 2.51762C26.7959 3.22491 28.3474 4.2616 29.6543 5.56851C30.9612 6.87541 31.9979 8.42694 32.7052 10.1345C33.4125 11.842 33.7766 13.6722 33.7766 15.5204V35.9827C33.7766 38.1256 32.9253 40.1808 31.41 41.6961C29.8947 43.2113 27.8396 44.0626 25.6967 44.0626H12.38C11.12 44.0626 9.87232 43.8144 8.70822 43.3322C7.54412 42.8501 6.48639 42.1433 5.59543 41.2523C4.70446 40.3614 3.99771 39.3036 3.51552 38.1395C3.03333 36.9754 2.78516 35.7278 2.78516 34.4677V18.3635C2.78516 13.8768 4.5675 9.57384 7.7401 6.40124C10.9127 3.22864 15.2157 1.44629 19.7024 1.44629Z" fill="#FFE5B3"/>
<path d="M97.6656 44.0677H84.3287C82.1858 44.0677 80.1307 43.2164 78.6154 41.7011C77.1001 40.1859 76.2488 38.1307 76.2488 35.9878V15.5205C76.2488 11.7878 77.7317 8.20796 80.3711 5.56854C83.0105 2.92913 86.5903 1.44632 90.323 1.44632C94.8097 1.44632 99.1127 3.22867 102.285 6.40127C105.458 9.57387 107.24 13.8768 107.24 18.3636V34.493C107.24 37.0377 106.229 39.4782 104.43 41.2776C102.631 43.077 100.19 44.0879 97.6454 44.0879L97.6656 44.0677Z" fill="#FFE5B3"/>
<path d="M54.6449 0.754395C59.3473 0.754395 63.8571 2.6224 67.1821 5.94748C70.5072 9.27255 72.3752 13.7823 72.3752 18.4847V36.8109C72.3752 38.9176 71.5383 40.9381 70.0486 42.4278C68.5589 43.9175 66.5384 44.7544 64.4317 44.7544H45.7924C43.6857 44.7544 41.6652 43.9175 40.1755 42.4278C38.6858 40.9381 37.8489 38.9176 37.8489 36.8109V17.5504C37.8489 13.0959 39.6185 8.82372 42.7683 5.67384C45.9182 2.52397 50.1903 0.754395 54.6449 0.754395Z" fill="#FFE5B3"/>
</g>
<path opacity="0.5" d="M91.7171 22.7544H86.312C85.0351 22.7544 84 23.7895 84 25.0664V28.1595C84 29.4364 85.0351 30.4715 86.312 30.4715H91.7171C92.994 30.4715 94.0291 29.4364 94.0291 28.1595V25.0664C94.0291 23.7895 92.994 22.7544 91.7171 22.7544Z" fill="#FFE5B3"/>
<path opacity="0.5" d="M56.7171 22.7544H51.312C50.0351 22.7544 49 23.7895 49 25.0664V28.1595C49 29.4364 50.0351 30.4715 51.312 30.4715H56.7171C57.994 30.4715 59.0291 29.4364 59.0291 28.1595V25.0664C59.0291 23.7895 57.994 22.7544 56.7171 22.7544Z" fill="#FFE5B3"/>
<path opacity="0.5" d="M22.7171 22.7544H17.312C16.0351 22.7544 15 23.7895 15 25.0664V28.1595C15 29.4364 16.0351 30.4715 17.312 30.4715H22.7171C23.994 30.4715 25.0291 29.4364 25.0291 28.1595V25.0664C25.0291 23.7895 23.994 22.7544 22.7171 22.7544Z" fill="#FFE5B3"/>
<path d="M19.6418 2.47754C21.5737 2.47754 23.4866 2.85805 25.2715 3.59735C27.0563 4.33665 28.678 5.42026 30.0441 6.7863C31.4101 8.15235 32.4937 9.77408 33.233 11.5589C33.9723 13.3437 34.3528 15.2567 34.3528 17.1886V38.5769C34.3528 40.8168 33.463 42.9649 31.8792 44.5487C30.2954 46.1326 28.1472 47.0224 25.9073 47.0224H11.988C10.671 47.0224 9.36687 46.763 8.15009 46.259C6.93331 45.755 5.82771 45.0162 4.89643 44.0849C3.96514 43.1537 3.22641 42.0481 2.7224 40.8313C2.21839 39.6145 1.95898 38.3104 1.95898 36.9933V20.1603C1.95898 15.4706 3.82199 10.9729 7.13816 7.65671C10.4543 4.34054 14.952 2.47754 19.6418 2.47754Z" stroke="#4D2C19" stroke-width="2.63923"/>
<path d="M100.769 47.0277H86.829C84.5891 47.0277 82.441 46.1379 80.8571 44.5541C79.2733 42.9702 78.3835 40.8221 78.3835 38.5822V17.1886C78.3835 13.287 79.9334 9.54522 82.6923 6.78636C85.4511 4.02751 89.1929 2.4776 93.0945 2.4776C97.7843 2.4776 102.282 4.3406 105.598 7.65677C108.914 10.9729 110.777 15.4706 110.777 20.1604V37.0198C110.777 39.6796 109.721 42.2306 107.84 44.1114C105.959 45.9922 103.408 47.0488 100.748 47.0488L100.769 47.0277Z" stroke="#4D2C19" stroke-width="2.63923"/>
<path d="M55.9836 1.75439C60.8988 1.75439 65.6126 3.70694 69.0882 7.18248C72.5637 10.658 74.5163 15.3719 74.5163 20.287V39.4425C74.5163 41.6446 73.6415 43.7565 72.0844 45.3136C70.5273 46.8708 68.4153 47.7455 66.2133 47.7455H46.7305C44.5284 47.7455 42.4165 46.8708 40.8594 45.3136C39.3023 43.7565 38.4275 41.6446 38.4275 39.4425V19.3105C38.4275 14.6543 40.2771 10.1889 43.5696 6.89646C46.862 3.60405 51.3274 1.75439 55.9836 1.75439Z" stroke="#4D2C19" stroke-width="2.63923"/>
</svg>
