<svg width="81" height="78" viewBox="0 0 81 78" fill="none" xmlns="http://www.w3.org/2000/svg">
<path opacity="0.5" d="M51.2777 40.0387C50.9121 41.3774 50.2025 43.9742 49.4982 46.5602C49.3 47.2369 49.0483 47.8967 48.7455 48.5334C47.3853 51.5065 47.1648 54.6462 47.0519 57.8236C46.896 62.2161 46.3154 66.5602 44.5949 70.7268C44.2371 71.5907 43.7826 72.4114 43.2401 73.1731C40.8799 76.501 36.2509 76.6408 33.8369 73.329C32.8725 71.8726 32.128 70.282 31.6272 68.6086C30.8638 66.372 30.3692 64.0494 29.6971 61.786C29.4622 61.0392 29.1257 60.3282 28.6971 59.6731C27.3745 57.6247 24.6434 57.3989 23.2079 59.3774C22.2443 60.8333 21.4761 62.4095 20.9229 64.0655C19.8853 66.7967 19.0251 69.5924 18.0251 72.3397C17.758 72.9615 17.383 73.5312 16.9176 74.0225C16.4719 74.5686 15.9132 75.0117 15.2799 75.3211C14.6465 75.6305 13.9537 75.7989 13.249 75.8148C12.5443 75.8306 11.8445 75.6935 11.1979 75.4129C10.5513 75.1322 9.97331 74.7147 9.50359 74.1892C7.8026 72.3282 6.68153 70.0113 6.27779 67.5225C5.57128 63.9125 5.07224 60.265 4.78315 56.5979C4.62019 53.9505 4.09376 51.3382 3.21865 48.8344C2.14338 45.8774 1.06811 42.8774 0.632631 39.8129C-0.0985513 34.528 2.53048 30.4581 7.14875 27.528C9.76165 25.8667 12.7132 26.071 15.6218 26.8398C17.1111 27.2269 18.5896 27.6409 20.0412 28.1302C23.6946 29.3956 27.6639 29.4183 31.3315 28.1947C33.1595 27.614 35.0304 27.1194 36.9068 26.6786C38.5504 26.2601 40.2714 26.249 41.9203 26.6462C43.5693 27.0435 45.0963 27.8371 46.3691 28.9581C49.6003 31.6355 51.2939 34.9312 51.2777 40.0387Z" fill="#FFE5B3"/>
<path d="M23.9722 25.5227C25.0804 25.7732 26.161 26.1334 27.198 26.598C28.4273 27.1815 29.6037 27.8704 30.7141 28.6571C32.0743 29.4797 34.3324 30.1947 38.1926 29.4904" stroke="#4D2C19" stroke-width="2.68817" stroke-miterlimit="10" stroke-linecap="round"/>
<path d="M53.9669 37.8614C53.6013 39.3022 52.8917 42.0925 52.1874 44.8506C51.9918 45.5856 51.7402 46.3046 51.4347 47.0011C50.0745 50.2269 49.854 53.5764 49.7411 57.0012C49.5852 61.7216 49.0046 66.399 47.2841 70.8506C46.9301 71.7739 46.4758 72.6554 45.9293 73.4796C43.5691 77.0656 38.9401 77.2108 36.5261 73.6516C35.5548 72.0701 34.811 70.3598 34.3164 68.571C33.553 66.1624 33.0584 63.6678 32.3863 61.2269C32.1536 60.4302 31.8174 59.6674 31.3863 58.9581C30.0637 56.7538 27.3326 56.5119 25.8971 58.6409C24.9287 60.2203 24.1611 61.9144 23.6121 63.6839C22.5745 66.6248 21.7143 69.6301 20.7143 72.5818C20.452 73.2449 20.0773 73.8578 19.6068 74.3936C17.6014 76.8989 14.3111 76.9849 12.1928 74.5764C10.4719 72.532 9.35479 70.0484 8.967 67.4043C8.26011 63.5162 7.76118 59.593 7.47236 55.6517C7.31153 52.8112 6.78572 50.0031 5.90786 47.2969C4.83259 44.1141 3.75732 40.8829 3.32184 37.5872C2.59066 31.9044 5.21968 27.5227 9.83796 24.3722C12.4509 22.5872 15.4024 22.8077 18.311 23.6302C19.8003 24.0496 21.2788 24.4905 22.7304 25.0174C26.3661 26.3811 30.3685 26.4058 34.0207 25.0872C35.8487 24.4636 37.7196 23.9259 39.596 23.4743C43.1713 22.5818 46.311 23.4743 49.0583 25.9259C52.2895 28.8184 53.9831 32.356 53.9669 37.8614Z" stroke="#4D2C19" stroke-width="3" stroke-miterlimit="10" stroke-linecap="round"/>
</svg>
