<svg width="121" height="68" viewBox="0 0 121 68" fill="none" xmlns="http://www.w3.org/2000/svg">
<path opacity="0.5" d="M107.253 43.7308C107.165 44.2193 107.076 44.7129 106.983 45.2014H60.7767C60.6623 44.6817 60.548 44.1621 60.4389 43.6425C58.0849 32.6781 57.082 25.4084 61.447 21.7449C64.6895 19.0116 70.3276 18.7674 74.2872 20.134C79.4161 21.906 80.1124 25.7877 83.9213 25.7565C87.7303 25.7253 88.1044 21.9787 93.5502 20.134C96.7824 19.0428 101.667 18.7986 104.79 20.9395C110.033 24.525 109.02 33.9512 107.253 43.7308Z" fill="#FFE5B3"/>
<path opacity="0.5" d="M106.989 46.2407H12.9348C7.19499 46.2407 2.54199 50.8937 2.54199 56.6335C2.54199 62.3732 7.19499 67.0262 12.9348 67.0262H106.989C112.729 67.0262 117.382 62.3732 117.382 56.6335C117.382 50.8937 112.729 46.2407 106.989 46.2407Z" fill="#FFF9F4"/>
<path opacity="0.5" d="M104.391 39.4856H18.6506C12.9108 39.4856 8.25781 44.1386 8.25781 49.8784C8.25781 55.6181 12.9108 60.2711 18.6506 60.2711H104.391C110.131 60.2711 114.784 55.6181 114.784 49.8784C114.784 44.1386 110.131 39.4856 104.391 39.4856Z" fill="#FFE5B3"/>
<path opacity="0.5" d="M54.2504 44.2506C54.1621 44.739 54.0738 45.2327 53.9802 45.7211H7.774C7.65968 45.2015 7.54536 44.6819 7.43624 44.1622C5.09787 33.1979 4.09496 25.9281 8.45992 22.2647C11.7025 19.5314 17.3405 19.2872 21.3002 20.6538C26.429 22.4258 27.1253 26.3075 30.9343 26.2763C34.7432 26.2451 35.1174 22.4985 40.5632 20.6538C43.7953 19.5626 48.6799 19.3183 51.8029 21.4592C57.0305 25.0447 56.0172 34.471 54.2504 44.2506Z" fill="#FFE5B3"/>
<path d="M57.5168 44.9417C57.3921 45.6328 57.2674 46.3239 57.1375 47.0202H10.9312C10.7753 46.3135 10.6299 45.6276 10.4844 44.9417C8.22393 34.2891 7.31976 27.17 11.6172 23.5638C14.8597 20.8305 20.4978 20.5862 24.4574 21.9529C29.5862 23.7248 30.2826 27.6065 34.0915 27.5754C37.9005 27.5442 38.2746 23.7976 43.7204 21.9529C46.9525 20.8616 51.8371 20.6174 54.9602 22.7583C60.0786 26.2711 59.2108 35.3803 57.5168 44.9417Z" stroke="#4D2C19" stroke-width="3" stroke-miterlimit="10"/>
<path d="M111.891 44.0301C111.803 44.5186 111.715 45.0122 111.621 45.5007H65.4148C65.3005 44.981 65.1862 44.4614 65.0771 43.9418C62.7231 32.9774 61.7202 25.7077 66.0852 22.0442C69.3277 19.3109 74.9658 19.0667 78.9254 20.4333C84.0542 22.2053 84.7506 26.087 88.5595 26.0558C92.3685 26.0247 92.7426 22.2781 98.1884 20.4333C101.421 19.3421 106.305 19.0979 109.428 21.2388C114.671 24.8243 113.658 34.2505 111.891 44.0301Z" stroke="#4D2C19" stroke-width="3" stroke-miterlimit="10"/>
<path d="M119.2 54.555C119.199 57.1041 118.185 59.5485 116.383 61.3511C114.58 63.1536 112.136 64.1669 109.587 64.1683H12.1599C6.84916 64.1683 2.3439 59.9748 2.28674 54.6641C2.25877 52.1679 3.20292 49.7587 4.91946 47.9461C6.63599 46.1336 8.99029 45.0598 11.4843 44.952C11.6246 45.6172 11.7701 46.2927 11.9208 46.989H58.0803L58.4544 44.9417H63.9989C64.0405 45.1443 64.1185 45.4977 64.16 45.6951C64.2016 45.8926 64.2744 46.2148 64.3263 46.4694H110.486C110.574 45.9913 110.662 45.5081 110.746 45.0352C113.073 45.3178 115.218 46.4415 116.775 48.1948C118.332 49.9481 119.194 52.2101 119.2 54.555Z" stroke="#4D2C19" stroke-width="3" stroke-miterlimit="10" stroke-linecap="round"/>
<path d="M32.5205 27.092C36.4468 30.0109 41.2847 31.4351 46.1662 31.1088" stroke="#4D2C19" stroke-width="3" stroke-miterlimit="10" stroke-linecap="round"/>
<path d="M83.9646 25.5332C87.8908 28.4521 92.7288 29.8762 97.6103 29.55" stroke="#4D2C19" stroke-width="3" stroke-miterlimit="10" stroke-linecap="round"/>
</svg>
