<svg width="58" height="78" viewBox="0 0 58 78" fill="none" xmlns="http://www.w3.org/2000/svg">
<path opacity="0.5" d="M42.2254 27.9097H13.0644C12.3595 27.9097 11.7881 28.4811 11.7881 29.186V32.374C11.7881 33.0789 12.3595 33.6503 13.0644 33.6503H42.2254C42.9302 33.6503 43.5017 33.0789 43.5017 32.374V29.186C43.5017 28.4811 42.9302 27.9097 42.2254 27.9097Z" fill="#F3EBD9"/>
<path opacity="0.5" d="M41.1492 27.9097H14.4062C13.7013 27.9097 13.1299 28.4811 13.1299 29.186V32.374C13.1299 33.0789 13.7013 33.6503 14.4062 33.6503H41.1492C41.8541 33.6503 42.4255 33.0789 42.4255 32.374V29.186C42.4255 28.4811 41.8541 27.9097 41.1492 27.9097Z" fill="#FFE5B3"/>
<path opacity="0.5" d="M35.1672 69.1069C35.0822 69.3388 34.9759 69.5624 34.8495 69.7746C34.5264 70.3166 34.1192 70.8038 33.6432 71.2179L30.5521 74.0182C29.7743 74.724 28.7616 75.1149 27.7114 75.1149C26.6611 75.1149 25.6484 74.724 24.8706 74.0182C24.1059 73.3289 23.3448 72.636 22.5873 71.9395C21.783 71.2896 21.0963 70.5063 20.5571 69.6238C19.8852 68.2827 19.6391 66.7683 19.8516 65.2834C20.067 63.097 20.1101 55.3422 20.0616 43.8986C20.0616 42.9131 20.0616 41.8954 20.0616 40.856C20.0616 38.6104 20.0617 36.2409 20.0132 33.7637H35.5119C35.5119 34.9233 35.5119 36.0577 35.5119 37.1671C35.5119 37.6033 35.5119 38.0341 35.5119 38.4596C35.4634 54.0767 35.4741 64.5672 35.6034 65.8273C35.7026 66.9393 35.5536 68.0595 35.1672 69.1069Z" fill="#FFE5B3"/>
<path d="M38.4681 61.9229L23.0879 69.7153" stroke="#4D2C19" stroke-width="2.69261" stroke-miterlimit="10"/>
<path d="M44.3959 28.4482H17.3567C16.0659 28.4482 15.0195 29.4946 15.0195 30.7854V31.8517C15.0195 33.1425 16.0659 34.1889 17.3567 34.1889H44.3959C45.6867 34.1889 46.7331 33.1425 46.7331 31.8517V30.7854C46.7331 29.4946 45.6867 28.4482 44.3959 28.4482Z" stroke="#4D2C19" stroke-width="2.69261" stroke-miterlimit="10"/>
<path opacity="0.5" d="M51.1607 27.829H3.29144C0.598825 15.5614 -0.747492 7.49437 3.98612 3.5147C7.3465 0.687453 13.1895 0.428981 17.293 1.85068C22.6028 3.68704 23.3299 7.70983 27.2772 7.67214C31.2246 7.63444 31.5854 3.76243 37.256 1.85068C40.6056 0.719783 45.6677 0.461314 48.9043 2.68003C54.5964 6.5897 53.1478 17.1609 51.1607 27.829Z" fill="#FFE5B3"/>
<path d="M54.3916 28.3676H6.52239C3.82978 16.1 2.48347 8.03295 7.21708 4.05327C10.5775 1.22603 16.4204 0.967555 20.524 2.38925C25.8338 4.22561 26.5608 8.24841 30.5082 8.21071C34.4555 8.17301 34.8163 4.30101 40.487 2.38925C43.8366 1.25836 48.8987 0.999888 52.1352 3.2186C57.8274 7.12827 56.3788 17.6994 54.3916 28.3676Z" stroke="#4D2C19" stroke-width="2.69261" stroke-miterlimit="10"/>
<path d="M26.7588 6.63818C30.8276 9.66296 35.842 11.1371 40.9004 10.7956" stroke="#4D2C19" stroke-width="2.69261" stroke-miterlimit="10" stroke-linecap="round"/>
<path d="M38.3982 69.6452C38.3132 69.8772 38.2068 70.1007 38.0805 70.313C37.7574 70.8549 37.3502 71.3421 36.8742 71.7563L33.1045 75.1651C32.5105 75.7024 31.738 76 30.937 76C30.1359 76 29.3634 75.7024 28.7694 75.1651C27.7839 74.2658 26.793 73.3718 25.8129 72.4725C25.0086 71.8225 24.3219 71.0392 23.7827 70.1568C23.1108 68.8156 22.8647 67.3013 23.0772 65.8164C23.2926 63.63 23.3357 55.8753 23.2872 44.4317C23.2872 43.4462 23.2872 42.4283 23.2872 41.389C23.2872 39.1434 23.2603 36.7738 23.2388 34.2966H38.7375C38.7375 35.4562 38.7375 36.5908 38.7375 37.7001C38.7375 38.1363 38.7375 38.5671 38.7375 38.9925C38.689 54.6097 38.6997 65.1001 38.829 66.3603C38.9307 67.4737 38.7836 68.5957 38.3982 69.6452Z" stroke="#4D2C19" stroke-width="2.69261" stroke-miterlimit="10"/>
<path d="M38.4671 40.2258L23.0869 48.0236" stroke="#4D2C19" stroke-width="2.69261" stroke-miterlimit="10"/>
<path d="M31.8486 34L22.8486 39" stroke="#4D2C19" stroke-width="2.69261" stroke-miterlimit="10"/>
<path d="M38.4681 51.7395L23.0879 59.5319" stroke="#4D2C19" stroke-width="2.69261" stroke-miterlimit="10"/>
</svg>
