<svg width="119" height="96" viewBox="0 0 119 96" fill="none" xmlns="http://www.w3.org/2000/svg">
<path opacity="0.5" d="M73.7669 51.6124C73.7577 59.2779 71.4 66.7565 67.0113 73.0413C62.6226 79.3262 56.4136 84.1155 49.2204 86.7644C42.0271 89.4134 34.1949 89.7948 26.7783 87.8572C19.3617 85.9197 12.7168 81.7563 7.73827 75.9276C2.70573 67.8981 0.898958 58.2614 2.6811 48.9542C4.46325 39.6471 9.70221 31.3595 17.345 25.7571C24.9878 20.1547 34.4679 17.6528 43.8799 18.7544C53.2919 19.8559 61.9381 24.4791 68.0808 31.6949C71.8207 37.6631 73.7923 44.5693 73.7669 51.6124Z" fill="#FFE5B3"/>
<path d="M76.9906 56.0101C76.9893 64.8138 73.8903 73.3362 68.2365 80.0845C62.5826 86.8327 54.7346 91.3764 46.0672 92.9194C37.3998 94.4624 28.4659 92.9064 20.8305 88.524C13.1951 84.1417 7.3452 77.2124 4.30567 68.9501C1.26613 60.6878 1.23079 51.6195 4.20583 43.3338C7.18087 35.048 12.9766 28.0733 20.5776 23.6315C28.1786 19.1898 37.1001 17.5643 45.7793 19.0397C54.4584 20.5151 62.3416 24.9974 68.0479 31.7014C73.8213 38.485 76.9914 47.1023 76.9906 56.0101Z" stroke="#4D2C19" stroke-width="3.20527" stroke-miterlimit="10"/>
</svg>
