<svg width="79" height="79" viewBox="0 0 79 79" fill="none" xmlns="http://www.w3.org/2000/svg">
<path opacity="0.5" d="M71.75 38.5C71.75 57.83 56.08 73.5 36.75 73.5C17.42 73.5 1.75 57.83 1.75 38.5C1.75 19.17 17.42 3.5 36.75 3.5C56.08 3.5 71.75 19.17 71.75 38.5Z" fill="#FFE5B3"/>
<path d="M76.7406 39.8778C76.7393 48.6815 73.6403 57.2039 67.9865 63.9521C62.3326 70.7004 54.4846 75.244 45.8172 76.7871C37.1498 78.3301 28.2159 76.7741 20.5805 72.3917C12.9451 68.0093 7.0952 61.08 4.05567 52.8177C1.01613 44.5555 0.980794 35.4872 3.95583 27.2014C6.93087 18.9157 12.7266 11.941 20.3276 7.4992C27.9286 3.05745 36.8501 1.43193 45.5293 2.90736C54.2084 4.38279 62.0916 8.86508 67.7979 15.569C73.5713 22.3527 76.7414 30.97 76.7406 39.8778Z" stroke="#4D2C19" stroke-width="3.20527" stroke-miterlimit="10"/>
<path d="M8.25 18.3769C14.5833 16.3769 29.05 13.5769 36.25 18.3769C45.25 24.3769 51.25 31.877 62.75 33.877C71.95 35.477 75.9167 34.5436 76.75 33.877" stroke="#4D2C19" stroke-width="3.21"/>
</svg>
