<svg width="129" height="59" viewBox="0 0 129 59" fill="none" xmlns="http://www.w3.org/2000/svg">
<g clip-path="url(#clip0_1_2678)">
<path opacity="0.5" d="M108.001 43.1072C107.997 47.0174 106.442 50.7664 103.678 53.5313C100.913 56.2962 97.1636 57.851 93.2535 57.8543H36.5828C33.6681 57.8525 30.8194 56.9862 28.3971 55.365C25.9748 53.7439 24.0878 51.4407 22.9747 48.7469C21.8616 46.0531 21.5724 43.0897 22.1438 40.2315C22.7152 37.3733 24.1215 34.7488 26.1847 32.69C27.2324 31.6404 28.435 30.7578 29.7505 30.073C29.9479 31.0345 30.158 32.0215 30.3872 33.0211C30.5464 33.7789 30.7184 34.5557 30.8903 35.3516H99.8438C99.9839 34.6194 100.118 33.8808 100.251 33.1549C100.411 32.2379 100.576 31.321 100.729 30.4041C102.943 31.704 104.779 33.5601 106.055 35.7884C107.33 38.0167 108.001 40.5397 108.001 43.1072Z" fill="#F6F0E2"/>
<path opacity="0.5" d="M108.778 39.9044C108.778 42.6042 107.122 45.0621 104.454 46.8323C101.34 48.7728 97.731 49.7702 94.0625 49.704H37.3919C29.2542 49.704 22.6511 45.3168 22.6511 39.9044C22.6511 37.1983 24.3003 34.7468 26.9746 32.9766C28.079 32.2502 29.2707 31.6662 30.5213 31.2383C30.7187 31.875 30.9289 32.5118 31.1581 33.1995L31.6675 34.7468H100.621C100.761 34.2628 100.895 33.7725 101.022 33.2822C101.188 32.6455 101.353 32.0661 101.506 31.4611C105.861 33.1613 108.778 36.3068 108.778 39.9044Z" fill="#FFE5B3"/>
<path opacity="0.5" d="M91.5803 30.8436C91.4593 31.5376 91.332 32.2381 91.2046 32.9321C91.1027 33.4861 91.0008 34.0464 90.8926 34.6004H37.393C37.2656 33.9637 37.1319 33.4097 37.0045 32.8302C36.8326 32.0725 36.6734 31.3211 36.5142 30.5953C34.1583 19.4076 33.426 11.913 38.1698 8.00977C41.9266 4.91517 48.4596 4.635 53.0506 6.18867C58.9915 8.19443 59.8001 12.5944 64.2128 12.5562C68.6255 12.518 69.0585 8.2772 75.3687 6.18867C79.1191 4.94701 84.7734 4.67321 88.3965 7.09922C94.0636 10.907 93.3759 20.5283 91.5803 30.8436Z" fill="#FFE5B3"/>
<path d="M94.8513 29.6209C94.7239 30.3722 94.5902 31.1236 94.4565 31.875C94.3482 32.4735 94.24 33.0784 94.1254 33.677H37.5247C37.3847 33.0402 37.2446 32.4035 37.1109 31.7667C36.9326 30.9453 36.7607 30.1366 36.5951 29.3471C34.099 17.2488 33.3286 9.14939 38.3462 4.93411C42.3195 1.58481 49.2282 1.28554 54.0802 2.96019C60.3649 5.09967 61.2182 9.88165 65.8855 9.81798C70.5529 9.7543 70.9795 5.18881 77.6845 2.92835C81.6451 1.60392 87.6305 1.29191 91.4574 3.91531C97.4619 8.03508 96.7488 18.4332 94.8513 29.6209Z" stroke="#4D2C19" stroke-width="3" stroke-miterlimit="10"/>
<path d="M61.4617 7.97144C63.8327 9.73282 66.4943 11.0647 69.3255 11.9065C72.1964 12.7559 75.1955 13.0879 78.1827 12.8871" stroke="#4D2C19" stroke-width="3.18374" stroke-miterlimit="10" stroke-linecap="round"/>
<path d="M108.776 41.3559C108.766 45.2561 107.213 48.9938 104.456 51.7522C101.698 54.5107 97.9614 56.0657 94.0612 56.0775H37.3905C34.4731 56.0819 31.62 55.2202 29.1929 53.6014C26.7657 51.9827 24.8737 49.6799 23.7566 46.9848C22.6396 44.2897 22.3478 41.3236 22.9181 38.4624C23.4885 35.6013 24.8954 32.9739 26.9606 30.9132C27.9747 29.893 33.827 25.7465 35.3451 24.8931C35.4031 24.8605 35.473 24.8944 35.4862 24.9596C35.704 26.0388 36.2402 28.872 36.46 29.8306C36.6204 30.5709 37.1822 32.8847 37.3733 33.7517C37.3835 33.7977 37.4242 33.8306 37.4712 33.8306H94.0435C94.0915 33.8306 94.1326 33.7969 94.1419 33.7498C94.3042 32.9277 94.8369 30.5318 94.96 29.8306C95.1172 28.9595 95.289 27.4123 95.4368 26.4736C95.4477 26.4044 95.5221 26.367 95.5831 26.4017C97.9183 27.7298 104.502 30.3965 106.836 34.0231C108.112 36.2561 108.781 38.7841 108.776 41.3559Z" stroke="#4D2C19" stroke-width="3" stroke-miterlimit="10" stroke-linecap="round"/>
</g>
<defs>
<clipPath id="clip0_1_2678">
<rect width="128.082" height="58.3389" fill="white" transform="translate(0.458984 0.330566)"/>
</clipPath>
</defs>
</svg>
