<svg width="102" height="83" viewBox="0 0 102 83" fill="none" xmlns="http://www.w3.org/2000/svg">
<path opacity="0.5" d="M95.7962 35.8164C95.4626 37.0299 94.8148 39.3837 94.172 41.7279C93.9911 42.3412 93.7614 42.9393 93.485 43.5164C92.2436 46.2115 92.0473 49.0575 91.9394 51.9378C91.797 55.9194 91.2671 59.8571 89.7018 63.634C89.3713 64.4153 88.9567 65.1587 88.4652 65.8515C86.3061 68.8681 82.0861 68.9948 79.878 65.9928C78.9978 64.6726 78.3183 63.2308 77.8612 61.7139C77.1644 59.6865 76.7179 57.5812 76.0996 55.5295C75.8882 54.8483 75.5809 54.2003 75.1869 53.6045C73.9798 51.7477 71.492 51.543 70.1769 53.3364C69.2989 54.6563 68.5994 56.0851 68.0964 57.5861C67.1444 60.0618 66.3593 62.596 65.4466 65.0863C65.2028 65.65 64.8606 66.1664 64.4357 66.6117C64.029 67.1068 63.5191 67.5083 62.941 67.7888C62.363 68.0693 61.7306 68.2219 61.0875 68.2363C60.4443 68.2507 59.8056 68.1264 59.2155 67.872C58.6253 67.6176 58.0977 67.2392 57.669 66.7628C56.1141 65.0774 55.0906 62.9765 54.7248 60.7197C54.0776 57.4478 53.6221 54.1412 53.3607 50.8169C53.2079 48.4173 52.7258 46.0496 51.9279 43.7796C50.9759 41.0992 49.9651 38.3798 49.5676 35.6019C48.9003 30.8113 51.2998 27.1221 55.5149 24.4661C57.8997 22.9602 60.5936 23.1454 63.2532 23.8423C64.6075 24.1932 65.9618 24.5685 67.2818 25.0119C70.6163 26.159 74.239 26.1796 77.5864 25.0704C79.2548 24.5441 80.9624 24.0957 82.675 23.6961C84.1751 23.3164 85.7459 23.3061 87.251 23.6662C88.756 24.0263 90.1498 24.7459 91.3113 25.7625C94.2653 28.1992 95.811 31.1866 95.7962 35.8164Z" fill="#FFE5B3"/>
<path d="M100.251 33.8427C99.917 35.1488 99.2692 37.6781 98.6264 40.1782C98.4479 40.8445 98.2183 41.4962 97.9394 42.1276C96.698 45.0516 96.5017 48.0878 96.3937 51.1922C96.2514 55.4711 95.7215 59.711 94.1562 63.7462C93.829 64.5813 93.4146 65.3801 92.9196 66.1293C90.7605 69.3799 86.5405 69.5115 84.3324 66.2853C83.4459 64.8517 82.767 63.3014 82.3156 61.6799C81.6188 59.4965 81.1723 57.2353 80.554 55.0227C80.3437 54.2998 80.0368 53.6081 79.6413 52.9661C78.4342 50.968 75.9464 50.7487 74.6313 52.6786C73.749 54.1105 73.0501 55.6461 72.5507 57.2499C71.5988 59.94 70.8137 62.6399 69.9255 65.3008C69.6861 65.9019 69.3442 66.4575 68.9147 66.9432C67.0893 69.2142 64.0813 69.2922 62.148 67.1089C60.575 65.2571 59.5552 63.0051 59.2038 60.6077C58.5562 57.0836 58.1008 53.5273 57.8396 49.9543C57.6764 47.383 57.1834 44.8429 56.3724 42.3956C55.4205 39.5105 54.4097 36.5816 54.0122 33.5942C53.3448 28.4429 55.7444 24.4711 59.9594 21.6152C62.3442 19.9777 65.0185 20.197 67.6978 20.9524C69.0521 21.3326 70.4064 21.7322 71.7264 22.2098C75.0446 23.4459 78.6976 23.4684 82.031 22.2731C83.6994 21.7078 85.407 21.2205 87.1196 20.8111C90.3876 20.0021 93.2484 20.8111 95.7558 23.0334C98.7196 25.6456 100.265 28.8523 100.251 33.8427Z" stroke="#4D2C19" stroke-width="3.50949" stroke-miterlimit="10" stroke-linecap="round"/>
<path opacity="0.5" d="M46.5725 36.9488C46.2943 38.1843 45.7723 40.5678 45.2126 42.9449C45.0558 43.5672 44.8508 44.1767 44.5992 44.7678C43.4774 47.5257 43.4039 50.3819 43.4222 53.2694C43.4573 57.2558 43.0962 61.2234 41.6935 65.0551C41.3991 65.8533 41.0174 66.6173 40.5553 67.333C38.5348 70.4578 34.324 70.7899 32.0004 67.894C31.065 66.6175 30.3259 65.2084 29.8074 63.7129C29.0212 61.7132 28.4828 59.6325 27.7786 57.608C27.538 56.9409 27.2034 56.3118 26.7848 55.7395C25.5031 53.9415 23.0112 53.8552 21.7787 55.7148C20.9593 57.0766 20.3234 58.5392 19.8877 60.0648C19.0444 62.5888 18.3708 65.1611 17.5677 67.6957C17.3495 68.2726 17.0308 68.8071 16.6264 69.2745C16.2422 69.7878 15.7515 70.2126 15.188 70.52C14.6246 70.8273 14.0017 71.0098 13.3624 71.0549C12.723 71.1 12.0822 71.0067 11.4841 70.7813C10.8859 70.556 10.3446 70.2039 9.89732 69.7494C8.27062 68.1379 7.15442 66.0852 6.68581 63.8434C5.90181 60.6013 5.30474 57.3161 4.89751 54.0038C4.63399 51.6143 4.04506 49.2736 3.14693 47.0461C2.07847 44.4104 0.941896 41.7352 0.437108 38.9766C-0.408503 34.2145 1.82238 30.3942 5.91032 27.5331C8.22105 25.912 10.9153 25.966 13.5993 26.5322C14.9656 26.8182 16.3332 27.126 17.6699 27.5079C21.0425 28.4919 24.6534 28.336 27.9414 27.0643C29.5834 26.4539 31.2523 25.9293 32.9541 25.442C34.4341 24.9888 36.0006 24.9022 37.5174 25.1896C39.0343 25.477 40.4555 26.1298 41.6575 27.0912C44.7287 29.3978 46.4009 32.304 46.5725 36.9488Z" fill="#FFE5B3" fill-opacity="0.898039"/>
<path d="M50.6786 33.8522C50.4053 35.1749 49.8848 37.7376 49.3351 40.2891C49.1816 40.9575 48.9793 41.614 48.7298 42.2536C47.609 45.2192 47.554 48.2841 47.583 51.3962C47.6222 55.6841 47.2804 59.95 45.8897 64.0675C45.6021 64.9187 45.2236 65.7372 44.7607 66.5088C42.7364 69.8722 38.5389 70.2079 36.2065 67.0807C35.2568 65.6939 34.5127 64.1772 33.9972 62.5769C33.2023 60.4248 32.657 58.1848 31.9458 56.0011C31.7073 55.2875 31.3717 54.6103 30.9482 53.9885C29.6584 52.049 27.1677 51.9451 25.9408 53.942C25.1204 55.4167 24.489 56.9875 24.0618 58.6172C23.2347 61.3457 22.5668 64.0948 21.77 66.817C21.552 67.4243 21.231 67.9904 20.821 68.4904C19.0947 70.8489 16.0856 71.0837 14.0853 69.0028C12.436 67.2245 11.3187 65.0209 10.8585 62.6386C10.0613 59.1457 9.45441 55.6113 9.04054 52.0508C8.78015 49.4823 8.19012 46.9596 7.28489 44.5446C6.21126 41.7036 5.06527 38.8256 4.53769 35.8607C3.65206 30.7446 5.87159 26.6495 9.95012 23.5857C12.2607 21.8465 14.9537 21.918 17.6335 22.5261C19.009 22.8575 20.3803 23.1912 21.7048 23.5914C25.0663 24.6626 28.7074 24.5069 31.9788 23.152C33.6208 22.5023 35.2981 21.9334 36.9902 21.4292C40.2139 20.4571 43.1034 21.1242 45.6998 23.2267C48.7975 25.7263 50.4761 28.8595 50.6786 33.8522Z" stroke="#4D2C19" stroke-width="3.50949" stroke-miterlimit="10" stroke-linecap="round"/>
</svg>
